<svg id="Layer_1" data-name="Layer 1" xmlns="http://www.w3.org/2000/svg" viewBox="0 0 800 800"><defs><style>.cls-1{fill:#f0bc8c;}.cls-2{fill:#f7cca9;}.cls-3{fill:#d6a983;}.cls-4{fill:#fff;}.cls-4,.cls-5{stroke:#c3cbd5;stroke-miterlimit:10;}.cls-5{fill:#f1f1f2;}.cls-6{fill:#f2f2f2;}</style></defs><title>handsphone</title><g id="hand-underlay"><path id="armthumb" class="cls-1" d="M237,269c11,65.88-9.14,138.48,13,202L75,838l194,7L388,541c35-15,90.25-50.44,106-74L329,369.58c-37-11.58-45-49.58-48-84.39-3.06-27.19-14.33-34.74-20.6-38.3-7.32-4.15-17.46-.89-21.68,2.68C237.8,250,237,263,237,269Z"/><path id="thumbnail" class="cls-2" d="M236,250a198.65,198.65,0,0,0,3,33s5-2,5-6-3-27-3-27A4,4,0,0,0,236,250Z"/><path id="indexfinger" class="cls-1" d="M487.5,238.5a22,22,0,0,1-15.56-37.56l50.5-50.5a22,22,0,0,1,31.11,31.11l-50.5,50.5A21.93,21.93,0,0,1,487.5,238.5Z"/><path id="shadow" class="cls-3" d="M284.89,456.38C286,470,298,482,312.38,484.93a52.1,52.1,0,0,0,8.5,1.38c2.63.49,5.27.89,7.87,1.24,5.2.69,10.24,1.15,14.73,1.58q4.81.6,9.63,1c19.13,1.74,37.95.28,56.88-1l9.47-.63c2.44-.06,4.89-.08,7.35-.07s4.92,0,7.38,0C455,486,489,492,492,467c0-3-10-7-16.39-11.27a76.32,76.32,0,0,0-9.18-5l-10.76-6.34L327,368.38,317.89,363c-1.65-1.17-3.35-2.25-5.08-3.28C304,354,295,351,287,344c-1,14-4,28-4.17,41.8-.14,2.25-.25,4.52-.36,6.79-.31,6.81-.53,13.65-.61,20.5q-.05,4.11,0,8.23C282,430,281,439,283.94,447.8,284.57,453.23,284.89,456.38,284.89,456.38Z"/></g><g id="phone"><rect id="outline" class="cls-4" x="286.93" y="7.29" width="225.78" height="475.43" rx="31.82" ry="31.82"/><circle id="home-btn" class="cls-5" cx="399.22" cy="455.77" r="18.47"/><rect id="speaker" class="cls-5" x="380.69" y="31.16" width="36.81" height="3.68" rx="1.82" ry="1.82"/><rect id="UI-holder" class="cls-6" x="300" y="77.6" width="200" height="334.93"/></g><g id="hand-overlay"><path class="cls-1" d="M509,291a22,22,0,0,1-15.56-37.56l29-29a22,22,0,0,1,31.11,31.11l-29,29A21.93,21.93,0,0,1,509,291Z"/><path class="cls-1" d="M509,360a22,22,0,0,1-15.56-37.56l24-24a22,22,0,0,1,31.11,31.11l-24,24A21.93,21.93,0,0,1,509,360Z"/><path class="cls-1" d="M509,427a22,22,0,0,1-15.56-37.56l19.5-19.5a22,22,0,0,1,31.11,31.11l-19.5,19.5A21.93,21.93,0,0,1,509,427Z"/><path class="cls-2" d="M521,271c5.22,7.13-7.16,16-16,16a16,16,0,0,1-16-16c0-8.84,8.24-20.23,16-16C509.05,257.21,516.17,264.39,521,271Z"/><path class="cls-2" d="M522,341c5.22,7.13-7.16,16-16,16a16,16,0,0,1-16-16c0-8.84,8.24-20.23,16-16C510.05,327.21,517.17,334.39,522,341Z"/><path class="cls-2" d="M522,407c5.22,7.13-7.16,16-16,16a16,16,0,0,1-16-16c0-8.84,8.24-20.23,16-16C510.05,393.21,517.17,400.39,522,407Z"/></g><g id="point-hand"><path class="cls-1" d="M388.87,138a22,22,0,0,0-10.1,29.43c-5.76-1.32,103.61,227.65,108.73,240,4.2,10.17-47.25.2-74.07-9.7-25.92-8.76-37.54-1.75-43.42,2.42-6.86,4.87-8.21,15.43-6.77,20.77,0,1.06,149.25,82.5,227.25,71.5.1.11,196.26,366.28,196.26,366.28L875.34,686,690.49,409.39a183.07,183.07,0,0,0-2.14-20.82c-4.76-49.17-25.64-91.28-52.24-132.46q-3.32-5.15-6.76-10.28C618,230,606,203,583,212a16.79,16.79,0,0,0-9,8.16,22.1,22.1,0,0,0-2.76,12.45l-2.64-5.39A22,22,0,0,0,527,239.29a22,22,0,0,0-39.78,16.26c.75,9.12-4.71,12-6.71,9s-62.2-116.37-62.2-116.37A22,22,0,0,0,388.87,138Z"/><path class="cls-2" d="M392.68,171.12c-8.35,2.9-13.2-11.53-10.62-20a16,16,0,0,1,20-10.62c8.45,2.59,16.93,13.8,10.62,20C409.37,163.73,400.41,168.43,392.68,171.12Z"/><path id="thumbnail-2" data-name="thumbnail" class="cls-2" d="M365.35,421.67a198.65,198.65,0,0,0,29.31,15.46s1-5.28-2.31-7.46-24.28-12.19-24.28-12.19A4,4,0,0,0,365.35,421.67Z"/></g></svg>