<svg id="Layer_1" data-name="Layer 1" xmlns="http://www.w3.org/2000/svg" viewBox="0 0 500 500"><defs><style>.cls-1{fill:aqua;}</style></defs><title>hand</title><path class="cls-1" d="M162,282.19c0-11,7.16-20.62,14.95-28.36,2.46-2.44,5.31-4.92,8.76-5.14s7.18,3.2,5.91,6.42c2.93.85,5.7-1.53,8-3.53s5.73-3.85,8.2-2.05l.67,7.08a91.14,91.14,0,0,1,14.58-5.31l.49,6.25c11.62-.48,19.58-14.71,31.19-14.08a9.36,9.36,0,0,1-1.3,9.63,26.25,26.25,0,0,1-4.8,3.92,30.8,30.8,0,0,0-12.11,21.41,8.08,8.08,0,0,0,6.37-.72c.93,4.22,1.62,9.3-1.52,12.26a12.61,12.61,0,0,1-4.8,2.42L226,295.94a87.34,87.34,0,0,0-11,4.25c-3.22,1.59-6.26,3.58-9.7,4.63a37.53,37.53,0,0,1-9.78,1.17l-32.7,1a155.16,155.16,0,0,1-2.35-27.18"/></svg>