<svg xmlns="http://www.w3.org/2000/svg" xmlns:xlink="http://www.w3.org/1999/xlink" viewBox="0 0 800 800"><defs><style>.cls-1{isolation:isolate;}.cls-2,.cls-32,.cls-49{opacity:0.7;}.cls-2{fill:url(#radial-gradient);}.cls-3{fill:#fff257;}.cls-4,.cls-5,.cls-50{fill:#fff;}.cls-5{font-size:62.03px;font-family:ChunkFive-Roman, ChunkFive Roman;}.cls-6{fill:#7eb70f;}.cls-7{fill:#5b3e33;}.cls-8{fill:#a3391c;}.cls-9{fill:#64890a;}.cls-10,.cls-11,.cls-31,.cls-32{fill:#87c12b;}.cls-11,.cls-31,.cls-46,.cls-47{opacity:0.4;}.cls-11,.cls-47{mix-blend-mode:multiply;}.cls-12{fill:#578410;}.cls-13{fill:#ccb083;}.cls-14{fill:#e2cc6d;}.cls-15{fill:#7ca546;}.cls-16{fill:#fff031;}.cls-17{fill:#ccc083;}.cls-18{fill:#ed7a7a;}.cls-19{fill:#efd256;}.cls-20{fill:#648909;}.cls-21{fill:#f2e540;}.cls-22{fill:#d66565;}.cls-23{fill:#efe85e;}.cls-24{fill:#f7efa6;}.cls-25{fill:#896a3e;}.cls-26{fill:#ffddb8;}.cls-27{fill:#775225;}.cls-28{fill:#ba2b32;}.cls-29{fill:#f9c88f;}.cls-30,.cls-37{fill:#74a516;}.cls-33{fill:#e28f44;}.cls-34{fill:#639306;}.cls-35{fill:#e85275;}.cls-36{fill:#b636cc;}.cls-37,.cls-48{opacity:0.6;}.cls-38{fill:#ed2ba7;}.cls-39{fill:#a153e5;}.cls-40{fill:#f7b5c7;}.cls-41{fill:#ff330b;}.cls-42{fill:#dce046;}.cls-43{fill:#5bf4c8;}.cls-44{fill:#7befff;}.cls-45,.cls-46,.cls-47,.cls-48{fill:#3de2ea;}.cls-50{fill-rule:evenodd;}</style><radialGradient id="radial-gradient" cx="393.88" cy="240" r="399.58" gradientTransform="translate(-1.07 0)" gradientUnits="userSpaceOnUse"><stop offset="0" stop-color="#abf7ff"/><stop offset="0.35" stop-color="#a2f4fb"/><stop offset="0.91" stop-color="#8becf1"/><stop offset="1" stop-color="#86eaef"/></radialGradient></defs><title>house</title><g class="cls-1"><g id="background"><rect class="cls-2" x="-0.34" width="799.34" height="800"/></g><g id="objects"><circle class="cls-3" cx="391.79" cy="235.49" r="106.15"/><path class="cls-3" d="M497.94,141.5a4.5,4.5,0,0,1-3.09-7.76l29-27.47A4.5,4.5,0,0,1,530,112.8l-29,27.47A4.49,4.49,0,0,1,497.94,141.5Z"/><path class="cls-3" d="M532.95,186.45a4.5,4.5,0,0,1-1.72-8.65l23-9.49a4.49,4.49,0,1,1,3.43,8.31l-23,9.49A4.47,4.47,0,0,1,532.95,186.45Z"/><path class="cls-3" d="M547.55,341.58a4.47,4.47,0,0,1-1.65-.73l-21.71-15.41a4.5,4.5,0,1,1,5.2-7.33l21.71,15.41a4.5,4.5,0,0,1-3.55,8.06Z"/><path class="cls-3" d="M503,381.24a4.49,4.49,0,0,1-3.28-1.42l-21.48-23a4.5,4.5,0,0,1,6.57-6.14l21.48,23a4.5,4.5,0,0,1-3.28,7.56Z"/><path class="cls-3" d="M417.95,397.72a4.49,4.49,0,0,1-4.46-4l-2.38-22a4.49,4.49,0,1,1,8.94-1l2.38,22a4.49,4.49,0,0,1-4,5Z"/><path class="cls-3" d="M341.16,394.73a4.49,4.49,0,0,1-4.38-5.54l6-25a4.49,4.49,0,1,1,8.74,2.1l-6,25A4.5,4.5,0,0,1,341.16,394.73Z"/><path class="cls-3" d="M276.22,375.75a4.49,4.49,0,0,1-3.55-7.25l23-29.61a4.5,4.5,0,1,1,7.1,5.51l-23,29.62A4.48,4.48,0,0,1,276.22,375.75Z"/><path class="cls-3" d="M252.75,328a4.49,4.49,0,0,1-2.65-8.13l16.48-12a4.49,4.49,0,1,1,5.29,7.27l-16.48,12A4.47,4.47,0,0,1,252.75,328Z"/><path class="cls-3" d="M212.81,276.85a4.49,4.49,0,0,1-.44-9l35.21-3.5a4.5,4.5,0,0,1,.89,8.95l-35.21,3.5Z"/><path class="cls-3" d="M282.71,154.49a4.48,4.48,0,0,1-2.86-1l-25-20.65a4.49,4.49,0,0,1,5.73-6.93l25,20.65a4.5,4.5,0,0,1-2.87,8Z"/><path class="cls-3" d="M332.67,114a4.49,4.49,0,0,1-4-2.41l-17-32.47a4.49,4.49,0,0,1,8-4.17l17,32.47a4.5,4.5,0,0,1-4,6.58Z"/><path class="cls-3" d="M386.6,104a4.49,4.49,0,0,1-4.44-3.81l-4-26a4.5,4.5,0,0,1,8.89-1.37l4,26a4.49,4.49,0,0,1-3.76,5.13A4.3,4.3,0,0,1,386.6,104Z"/><path class="cls-3" d="M448,108a4.5,4.5,0,0,1-4.23-6l9.49-26.47a4.49,4.49,0,1,1,8.46,3l-9.49,26.47A4.5,4.5,0,0,1,448,108Z"/><path class="cls-3" d="M575.42,280.87a4.49,4.49,0,0,1-5.26,2.88l-21.52-5a4.49,4.49,0,1,1,2-8.75l21.52,5a4.49,4.49,0,0,1,3.35,5.4A4.3,4.3,0,0,1,575.42,280.87Z"/><path class="cls-4" d="M299.82,152.11a2.18,2.18,0,0,0-2,2.32c0,.67,4.37,66.95-9.4,82.56a7.41,7.41,0,0,1-5.19,2.83c-6,.33-10.62-3.12-13.89-10.28,4.35-13,3.1-28.59.17-33A3.61,3.61,0,0,0,266,194.7c-6.3.74-5,17.6-4.85,19.52a54,54,0,0,0,3.44,15.59c-.11.3-.23.59-.35.88-3.73,9-9.77,13.5-17.89,13.21a10.06,10.06,0,0,1-8-4.19c-5.27-6.81-7-21.77-5-43.26a281,281,0,0,1,4.81-31.28,2.18,2.18,0,0,0-4.25-1c-.55,2.43-13.2,59.8,1,78.16a14.37,14.37,0,0,0,11.31,5.88h.65c8.38.06,15.16-4.13,19.61-12.15q.35-.63.67-1.28c4.46,7.07,10.63,9.66,16.31,9.35a11.69,11.69,0,0,0,8.21-4.3c15-17,10.67-82.93,10.48-85.73A2.18,2.18,0,0,0,299.82,152.11Zm-33,69.89c-2.21-9.3-1.6-18.85-.41-22.12C267.7,203.17,268.61,212.5,266.78,222Z"/><path class="cls-4" d="M557.24,227.45a2.18,2.18,0,0,0-2.85-1.16c-.19.08-18.79,7.82-31.84,4-2.78-.81-5.19-3-7.11-5.95,7-7.86,9.61-19.55,7.5-26.18-1.34-4.2-4.51-6.19-8.5-5.33-4.9,1.06-7.87,6-8.14,13.58A37.27,37.27,0,0,0,510,223.6a18.93,18.93,0,0,1-4.86,3c-2.78,1.19-3.89.53-4.25.31-2.94-1.74-3.7-9.53-4.32-15.79-.86-8.79-1.68-17.09-7.94-17.14-4.36,0-8.24,3.75-11.24,8.67a23,23,0,0,0-2.82-6.49c-2.56-3.79-5.51-4.23-7.54-3.93-4.46.66-8.46,5.06-11.54,10.43a19.9,19.9,0,0,0-1.43-3.71c-1.09-2-2.45-3.08-4-3.09-2.22,0-5.06,2.14-11.25,7-2.15,1.69-4.56,3.59-7.09,5.46a17.1,17.1,0,0,0-7.84-10.2,13.22,13.22,0,0,0-14.47.45c-5.07,3.3-8.35,9.29-8,14.47a2.21,2.21,0,0,0-.41,0,5.58,5.58,0,0,0-3.09,3.7c0,.12.21,1,.6,2.32-.87,2.77-3.13,6.55-8.87,9.28-6.64,3.14-14.44,1.88-16.47-1.25a9.51,9.51,0,0,1-.7-1.32c2-6.15.79-13.76.72-14.17a2.1,2.1,0,0,0-.24-.68,21.13,21.13,0,0,1,1.25-2.77c1.67-3.05,3.77-4.86,5.62-4.85a3.87,3.87,0,0,1,3.17,1.2c1.24,1.52,1,4.35.82,5.31a2.18,2.18,0,0,0,4.26.88c.11-.56,1.05-5.52-1.68-8.91a8,8,0,0,0-6.53-2.83h0c-3.58,0-6.94,2.5-9.47,7.11-2.95,5.37-4.48,13.41-2.55,19.7a7.54,7.54,0,0,1-1.11,1.79,5.1,5.1,0,0,1-4.16,1.75c-.64,0-1.74-.91-2.93-3.44a42.48,42.48,0,0,1-2.85-9.63,94,94,0,0,0,10.34-32.73c1-10.47-1-16.87-5.76-18a5.61,5.61,0,0,0-5.83,2.21c-5.69,7-6.28,31.12-3.3,47.91h0c-5.41,8.46-19.58,22.35-28.81,18.33-6.5-2.83-8.54-8.31-6.08-16.29a33.91,33.91,0,0,1,1.71-4.38c9-3.84,24-11.74,21.13-20.38a4.08,4.08,0,0,0-4.42-2.87c-4.09.33-9.7,5.53-13.58,10.28a55.45,55.45,0,0,0-6.31,9.56c-1.27.53-2.51,1-3.7,1.44a2.18,2.18,0,0,0,1.29,4.15,29.3,29.3,0,0,0-1.18,4.6c-1.38,8.28,2,14.62,9.39,17.86a14.29,14.29,0,0,0,5.64,1.22c4.83,0,14.86-5.89,21.86-12.1,0,0,0,0,0,.07l.25-.28a42.2,42.2,0,0,0,4.34-4.45v0a35.64,35.64,0,0,0,1.92,5.35c1.84,3.92,4.14,5.92,6.84,5.94a9.46,9.46,0,0,0,7.49-3.27l.11-.14c2.3,2.74,6.5,4.23,11.16,4.27a23.73,23.73,0,0,0,10.21-2.24,21.46,21.46,0,0,0,9.23-7.74,19.26,19.26,0,0,0,6.16,7.28,13.31,13.31,0,0,0,10.45,1.83c7.44-1.57,13.38-8.27,14.78-16.66a21.63,21.63,0,0,0,.3-3.76c3.21-2.29,6.31-4.72,9.11-6.93,3.12-2.46,7-5.48,8.3-6,.68.81,1.89,3.73,2.69,8.63-2.13,5.24-3.32,10.42-3.22,13.42.14,4,2.42,4.67,3.39,4.74a3.6,3.6,0,0,0,3.36-1.78c1.83-2.79,1.84-9.59.94-15.82.45-1,1-2.09,1.5-3.14,3-5.73,6.44-9.4,9.23-9.82.5-.07,2-.3,3.79,2.86a28.42,28.42,0,0,1,2.81,9.45A40.73,40.73,0,0,0,471,221.3c-.23,4.82,2.2,5.55,3.25,5.64a3.47,3.47,0,0,0,3.32-1.94c1.63-2.78,1.79-8.78,1.39-13.46,0-.55-.12-1.24-.21-2a39.25,39.25,0,0,1,2.81-5.23c2.42-3.76,5-5.91,7-5.89,2.34,0,3.09,7.64,3.64,13.21.78,8,1.6,16.25,6.43,19.11,2.24,1.33,5,1.31,8.18-.06a23.07,23.07,0,0,0,5.38-3.25,17.36,17.36,0,0,0,9.09,7.07,33.46,33.46,0,0,0,9.12,1.23c12.42.1,25-5.12,25.63-5.4A2.18,2.18,0,0,0,557.24,227.45ZM334,194.39h0c1.07,3.46-5.5,8.29-13.14,12.24C325.77,199.58,331.9,194.38,334,194.39Zm21.6,14.49c-1.7-15.16-.69-33.59,3.24-38.39.53-.65.91-.78,1.17-.77a1.11,1.11,0,0,1,.25,0c1.78.43,3.31,4.8,2.45,13.37A87.62,87.62,0,0,1,355.6,208.88Zm60.77,20.56a9,9,0,0,1-7.13-1.2c-3.33-2.2-5.27-6.39-6.26-9.26.06-.28.11-.54.15-.79a10,10,0,0,0,4.89,3.42c5.76,2,12.85-.93,19.73-5.23C426.81,221.89,422.94,228.05,416.37,229.44Zm-6.94-12a5,5,0,0,1-3.72-4.24c-.46-3.64,2.2-8.46,6-11a9.72,9.72,0,0,1,5.34-1.7,8.82,8.82,0,0,1,4.51,1.34,12.91,12.91,0,0,1,6.21,9.21C421.15,215.64,414.2,219.11,409.43,217.49Zm103.82,2.67a33.14,33.14,0,0,1-2.58-13.6c.07-2,.62-8.59,4.71-9.48a4,4,0,0,1,.87-.1c1,0,1.92.51,2.56,2.5C520.25,204.05,518.47,213.4,513.25,220.16Z"/><text class="cls-5" transform="translate(256.5 296.49)">SPRING!</text><path class="cls-6" d="M129.33,625.91s-20.58,38.88-69.52,10.28S24.7,510.09,94.22,499.81s93.86,49.05,86.51,89.94C172.69,634.38,129.33,625.91,129.33,625.91Z"/><polygon class="cls-7" points="148.76 666.98 160.12 659.96 130.28 613.05 155.03 586.73 152.75 585.28 143.38 593.66 138.22 572.84 136.77 572.84 139.91 596.77 127.17 608.17 113.54 586.73 111.46 589.64 118.2 603.61 80.96 605.41 80.96 606.86 96.71 607.8 84.9 620.14 86.36 621.59 101.35 608.08 120.92 609.25 148.76 666.98"/><path class="cls-8" d="M141.45,551s-3.07-1.91-5.51,2.78,9.15,9,10.36,6.86,1.6-2.53,4.2-3.08.76-11.75-3.56-12C141,545.23,141.45,551,141.45,551Z"/><path class="cls-9" d="M134.28,548.55a3.2,3.2,0,0,0,2.6,2,5.75,5.75,0,0,0,3.19-.63,3.74,3.74,0,0,0-3-2C134.83,547.64,134.28,548.55,134.28,548.55Z"/><path class="cls-9" d="M140.26,543.79a3.2,3.2,0,0,0-1.26,3,5.75,5.75,0,0,0,1.41,2.94,3.75,3.75,0,0,0,1.14-3.38C141.27,544.09,140.26,543.79,140.26,543.79Z"/><path class="cls-8" d="M114.34,525.72s-.87-3.51-5.88-1.85.27,12.84,2.64,12.15,2.91-.7,5.16.72,8.74-7.89,5.83-11.1C118.08,521.24,114.34,525.72,114.34,525.72Z"/><path class="cls-9" d="M110.95,518.93a3.2,3.2,0,0,0,.48,3.24,5.75,5.75,0,0,0,2.73,1.78,3.74,3.74,0,0,0-.78-3.48C112,518.66,110.95,518.93,110.95,518.93Z"/><path class="cls-9" d="M118.55,519.7a3.2,3.2,0,0,0-3,1.28,5.75,5.75,0,0,0-1,3.09,3.75,3.75,0,0,0,3.17-1.63C119.07,520.61,118.55,519.7,118.55,519.7Z"/><path class="cls-8" d="M63.28,590s-.87-3.51-5.88-1.85.27,12.84,2.64,12.15,2.91-.7,5.16.72,8.74-7.89,5.83-11.1C67,585.48,63.28,590,63.28,590Z"/><path class="cls-9" d="M59.89,583.17a3.2,3.2,0,0,0,.48,3.24,5.75,5.75,0,0,0,2.73,1.78,3.74,3.74,0,0,0-.78-3.48C60.91,582.9,59.89,583.17,59.89,583.17Z"/><path class="cls-9" d="M67.49,583.93a3.2,3.2,0,0,0-3,1.28,5.75,5.75,0,0,0-1,3.09,3.75,3.75,0,0,0,3.17-1.63C68,584.85,67.49,583.93,67.49,583.93Z"/><path class="cls-8" d="M60.94,551.47s-3.6-.35-3.71,4.93,12.19,4,12.33,1.56.31-3,2.41-4.62-4.52-10.87-8.51-9.2C58,546.45,60.94,551.47,60.94,551.47Z"/><path class="cls-9" d="M53.41,552.4a3.2,3.2,0,0,0,3.21.63,5.75,5.75,0,0,0,2.59-2,3.74,3.74,0,0,0-3.54-.43C53.5,551.35,53.41,552.4,53.41,552.4Z"/><path class="cls-9" d="M56.67,545.49a3.2,3.2,0,0,0,.2,3.26,5.75,5.75,0,0,0,2.56,2,3.75,3.75,0,0,0-.48-3.54C57.71,545.31,56.67,545.49,56.67,545.49Z"/><path class="cls-8" d="M101.32,563.23s-1.6-3.24-6.14-.55,3,12.48,5.18,11.3,2.7-1.31,5.19-.4,6.85-9.58,3.31-12.09C104,558,101.32,563.23,101.32,563.23Z"/><path class="cls-9" d="M96.56,557.32a3.2,3.2,0,0,0,1.16,3.06,5.75,5.75,0,0,0,3,1.15,3.74,3.74,0,0,0-1.5-3.23C97.49,556.84,96.56,557.32,96.56,557.32Z"/><path class="cls-9" d="M104.14,556.44a3.2,3.2,0,0,0-2.67,1.9,5.75,5.75,0,0,0-.35,3.24,3.75,3.75,0,0,0,2.75-2.27C104.84,557.22,104.14,556.44,104.14,556.44Z"/><path class="cls-10" d="M214.25,597.93s-17.41,25.92-49.84,2.09S149,508.41,198.83,506.31s62.61,41.6,54.38,69.91C244.23,607.13,214.25,597.93,214.25,597.93Z"/><path class="cls-11" d="M207.77,595.65s-12.57,18.71-36,1.51S160.65,531,196.64,529.5s45.21,30,39.27,50.48C229.41,602.3,207.77,595.65,207.77,595.65Z"/><path class="cls-11" d="M205.56,558.92s-13.16,5.07-19-12.15,18.05-37.87,37-25.72,12.36,31.61,2,39.94C214.26,570.09,205.56,558.92,205.56,558.92Z"/><polygon class="cls-7" points="224.91 628.36 233.45 624.25 215.87 588.92 228.86 572.56 226.84 570.91 214.04 585.24 206.84 570.03 214.95 559.01 213.31 558.17 205.62 567.62 197.2 549.68 195 550.41 208.04 581.36 191.33 580.41 192.51 582.72 209.54 585.54 224.91 628.36"/><path class="cls-11" d="M196.18,581.26s3.75,10.68-10.2,14.93-30-15.39-19.75-30.32,25.66-9.16,32.1-.63C205.35,574.55,196.18,581.26,196.18,581.26Z"/><path class="cls-11" d="M221.11,578.92s-11.32-.27-10.36-14.82,25-22.58,35.34-7.76-.5,27.24-10.76,30.25C224.14,589.87,221.11,578.92,221.11,578.92Z"/><polyline class="cls-12" points="53.17 680.53 53.43 680.89 78.48 715.07 80.18 713.61 54.27 679.44"/><path class="cls-12" d="M68.56,698.4s-1.6-8,1.18-11.61,8.13-4.52,8.13-4.52a21,21,0,0,1-1.74,10.36A11.74,11.74,0,0,1,68.56,698.4Z"/><path class="cls-12" d="M68.36,704.48s-7.74,2.55-11.67.23-5.47-7.53-5.47-7.53a21,21,0,0,1,10.49.48A11.74,11.74,0,0,1,68.36,704.48Z"/><path class="cls-13" d="M49.72,675.9s-14.11-.56-11.82-6.12,12.3,5.71,12.3,5.71Z"/><path class="cls-13" d="M50.52,677.58s-10.2,9.77-12.61,4.25,12.65-4.88,12.65-4.88Z"/><path class="cls-13" d="M51.58,678.77S50.51,692.85,45,690.36s6.16-12.08,6.16-12.08Z"/><path class="cls-13" d="M53.29,678s9.39,10.55,3.79,12.76S52.66,678,52.66,678Z"/><path class="cls-13" d="M54.27,676.44s14.11-.5,12.24,5.22-12.69-4.78-12.69-4.78Z"/><path class="cls-13" d="M53.34,674.82s9.45-10.5,12.26-5.18-12.26,5.81-12.26,5.81Z"/><path class="cls-13" d="M52.19,673.71s0-14.12,5.67-12-5.24,12.51-5.24,12.51Z"/><path class="cls-13" d="M50.54,674.57s-10.14-9.83-4.73-12.44,5.36,12.46,5.36,12.46Z"/><circle class="cls-14" cx="51.99" cy="676.63" r="3.72"/><polyline class="cls-15" points="41.33 705.43 41.53 705.7 60.91 731.74 62.21 730.61 42.17 704.59"/><path class="cls-15" d="M53.22,719s-1.27-6.11.84-8.9,6.2-3.51,6.2-3.51A16.1,16.1,0,0,1,59,714.57,9,9,0,0,1,53.22,719Z"/><path class="cls-15" d="M53.1,723.69s-5.91,2-8.93.24-4.23-5.73-4.23-5.73a16.09,16.09,0,0,1,8,.31A9,9,0,0,1,53.1,723.69Z"/><path class="cls-16" d="M39.74,703.47s-10.81-.34-9.08-4.62,9.45,4.31,9.45,4.31Z"/><path class="cls-16" d="M40.84,703.63s-7.76,7.54-9.63,3.33,9.66-3.81,9.66-3.81Z"/><path class="cls-16" d="M41.37,703.17s-.74,10.79-4.95,8.91,4.65-9.29,4.65-9.29Z"/><path class="cls-16" d="M41.37,702.19s7.25,8,3,9.75-3.45-9.8-3.45-9.8Z"/><path class="cls-16" d="M39.88,701.38s10.81-.46,9.4,3.93-9.75-3.59-9.75-3.59Z"/><path class="cls-16" d="M39.66,702.05S46.83,694,49,698s-9.35,4.52-9.35,4.52Z"/><path class="cls-16" d="M39.26,702.43s-.06-10.82,4.27-9.25-3.95,9.61-3.95,9.61Z"/><path class="cls-16" d="M39.77,703.27s-7.82-7.47-3.69-9.5,4.17,9.51,4.17,9.51Z"/><circle class="cls-17" cx="40.41" cy="702.45" r="2.85" transform="translate(-5.18 0.32) rotate(-0.42)"/><polyline class="cls-15" points="80.3 671.09 80.5 671.36 99.88 697.39 101.18 696.27 81.14 670.24"/><path class="cls-15" d="M94.07,685.3s-1.27-6.11.84-8.9,6.2-3.51,6.2-3.51a16.11,16.11,0,0,1-1.27,7.94A9,9,0,0,1,94.07,685.3Z"/><path class="cls-15" d="M91,687.37s-2.92,4.37-5.83,4.75-5.77-1.65-5.77-1.65a13.54,13.54,0,0,1,5.52-3.93A7.57,7.57,0,0,1,91,687.37Z"/><path class="cls-18" d="M77.63,667.55s-10.81-.35-9.08-4.62,9.45,4.3,9.45,4.3Z"/><path class="cls-18" d="M78.26,668.84s-7.76,7.54-9.63,3.33,9.66-3.81,9.66-3.81Z"/><path class="cls-18" d="M79.08,669.75s-.74,10.79-4.95,8.91,4.65-9.29,4.65-9.29Z"/><path class="cls-18" d="M80.39,669.17s7.25,8,3,9.75-3.45-9.8-3.45-9.8Z"/><path class="cls-18" d="M81.12,667.94s10.81-.46,9.4,3.93-9.75-3.59-9.75-3.59Z"/><path class="cls-18" d="M80.41,666.71s7.18-8.09,9.36-4-9.35,4.52-9.35,4.52Z"/><path class="cls-18" d="M79.52,665.87s-.06-10.82,4.27-9.25-3.95,9.61-3.95,9.61Z"/><path class="cls-18" d="M78.26,666.54s-7.82-7.47-3.69-9.5,4.17,9.51,4.17,9.51Z"/><circle class="cls-19" cx="79.38" cy="668.11" r="2.85" transform="translate(-4.81 0.59) rotate(-0.41)"/><path class="cls-20" d="M291.81,608.36a5.32,5.32,0,0,1,1.25-.17l-5.94-27.55-1.12.41.07.33,5.38,27.12C291.58,608.46,291.69,608.4,291.81,608.36Z"/><path class="cls-20" d="M290.91,598.44s1.48-6.07,4.58-7.67,7.11-.5,7.11-.5a16.1,16.1,0,0,1-4.56,6.62A9,9,0,0,1,290.91,598.44Z"/><path class="cls-20" d="M288.8,602.59s-6.2-.74-8.17-3.62-1.36-7-1.36-7a16.09,16.09,0,0,1,7.13,3.73A9,9,0,0,1,288.8,602.59Z"/><path class="cls-21" d="M285.12,576.71s-9.61-5-6.22-8.07,6.69,7.95,6.69,7.95Z"/><path class="cls-21" d="M285.13,578.14S274.88,581.61,275,577s10.36.71,10.36.71Z"/><path class="cls-21" d="M285.48,579.31s-5.31,9.43-8.3,5.92,8.19-6.39,8.19-6.39Z"/><path class="cls-21" d="M286.91,579.36s3.1,10.36-1.5,10.08,1.09-10.33,1.09-10.33Z"/><path class="cls-21" d="M288.1,578.56s10,4.23,6.8,7.59-7.26-7.43-7.26-7.43Z"/><path class="cls-21" d="M288,577.14s10-4.22,10.18.38-10.39.07-10.39.07Z"/><path class="cls-21" d="M287.54,576s4.59-9.79,7.83-6.52-7.69,7-7.69,7Z"/><path class="cls-21" d="M286.11,576.06s-3.86-10.1.75-10.16-.32,10.38-.32,10.38Z"/><circle class="cls-17" cx="286.46" cy="577.96" r="2.85" transform="translate(-358.42 593.11) rotate(-64.98)"/><path class="cls-10" d="M315,603.36a7,7,0,0,1,1.67-.23l-7.56-36.76-.39-.92-.67.92,6.47,37.18C314.68,603.48,314.83,603.4,315,603.36Z"/><path class="cls-22" d="M318,558.75a5.18,5.18,0,0,0-6.28-8.23A5.19,5.19,0,1,0,301.57,552a5.12,5.12,0,0,0-2.25-.53,5.18,5.18,0,0,0-1.81,10,5.17,5.17,0,1,0,5.84,8.47,5.18,5.18,0,0,0,10.16-1.43,5.27,5.27,0,0,0-.06-.58,5.18,5.18,0,1,0,4.58-9.21Z"/><circle class="cls-23" cx="307.81" cy="559.98" r="6.14"/><circle class="cls-23" cx="302.53" cy="555" r="0.86"/><circle class="cls-23" cx="301.06" cy="557.53" r="0.86"/><circle class="cls-23" cx="300.81" cy="560.83" r="0.86"/><circle class="cls-23" cx="301.67" cy="563.7" r="0.86"/><circle class="cls-23" cx="303.75" cy="566.11" r="0.86"/><circle class="cls-23" cx="306.95" cy="566.97" r="0.86"/><circle class="cls-23" cx="310.06" cy="566.97" r="0.86"/><circle class="cls-23" cx="312.57" cy="565.69" r="0.86"/><circle class="cls-23" cx="314.46" cy="563.7" r="0.86"/><circle class="cls-23" cx="315.01" cy="560.83" r="0.86"/><circle class="cls-23" cx="315.01" cy="557.53" r="0.86"/><circle class="cls-23" cx="313.42" cy="555" r="0.86"/><circle class="cls-23" cx="310.61" cy="553.29" r="0.86"/><circle class="cls-23" cx="307.44" cy="552.43" r="0.86"/><circle class="cls-23" cx="304.6" cy="553.29" r="0.86"/><path class="cls-10" d="M311.49,582.63s2.83-6.22,5.7-8.05,8.29,2.43,4.19,5.79S311.49,582.63,311.49,582.63Z"/><path class="cls-10" d="M312.36,587.95s-6.82.48-9.79-1.16-1.82-8.44,3.09-6.45S312.36,587.95,312.36,587.95Z"/><path class="cls-10" d="M314.46,595.76s1.06-6.75,3.34-9.28,8.63.13,5.59,4.46S314.46,595.76,314.46,595.76Z"/><polygon class="cls-24" points="343.83 600.46 348.16 521.59 435.54 436.19 485.73 538.62 604.86 570.91 582.38 636.23 343.83 600.46"/><polygon class="cls-25" points="392.15 598.05 396.88 529.43 439.58 532.98 428.25 600.54 392.15 598.05"/><polygon class="cls-25" points="497.36 552.57 560.01 568.75 547.25 604.74 489.5 589.49 497.36 552.57"/><polygon class="cls-26" points="500.89 555.92 555.47 570.01 544.35 601.37 492.54 588.14 500.89 555.92"/><path class="cls-27" d="M560,568.75l-12.76,36,11.32,7.46,14.73-42.79Zm1.89,10.8s-1.64-4.58-.26-5.1,1.73,1.6,1.73,1.6,1.94-1.72,2.25,0C566,578.38,561.89,579.55,561.89,579.55Z"/><path class="cls-27" d="M486,545.75l-9.2,43.76,12.71,0,7.9-36.9Zm2.68,9.81c1.23-1.29,1.89,1.22,1.89,1.22s1.47-1.57,2.33-.37-3,4.1-3,4.1S487.05,557.26,488.67,555.57Z"/><path class="cls-28" d="M519.85,560.81s-5.19,10.31-10.73,15A16.88,16.88,0,0,1,498,580.13a10.5,10.5,0,0,1,1.31,4.68,21.19,21.19,0,0,1-.39,5l-6.34-1.62,8.35-32.22Z"/><path class="cls-28" d="M533.92,564.45s-1.21,15.91,2,20.39,5.53,4.51,5.53,4.51a12.54,12.54,0,0,0-3.57,3.5,22.17,22.17,0,0,0-2.41,6.23l8.93,2.28L555.47,570Z"/><circle class="cls-25" cx="420.31" cy="491.01" r="14.99" transform="matrix(0.08, -1, 1, 0.08, -101.7, 872.13)"/><circle class="cls-29" cx="420.31" cy="491.01" r="12.12" transform="translate(-101.72 872.09) rotate(-85.57)"/><polygon class="cls-25" points="419.92 476.52 417.74 504.56 419.98 504.74 423.63 477.26 419.92 476.52"/><polygon class="cls-25" points="407.1 487.75 406.84 491.05 433.63 494.29 433.89 490.99 407.1 487.75"/><polygon class="cls-28" points="610.21 572.41 579.94 475.99 433.65 432.76 479.85 537.02 610.21 572.41"/><polyline class="cls-28" points="340.7 521.89 341.33 516.11 433.65 432.76 436.47 437.46 348.16 521.59"/><path class="cls-30" d="M634.19,626.78c-33.72-16.73-22.62-65.67-7.69-86.28,23.11-31.9,65.83-55.68,87.07-38.78,17.68,14.08,14.2,60.69-4.11,95.27C696.23,622,667.92,643.51,634.19,626.78Z"/><path class="cls-31" d="M635.82,623.25c-28.74-14.26-19.28-56-6.56-73.54,19.7-27.19,56.11-47.46,74.2-33,15.07,12,12.1,51.72-3.5,81.19C688.69,619.16,664.56,637.5,635.82,623.25Z"/><path class="cls-32" d="M633,624.59c-23.72-11.77-15.92-46.2-5.41-60.7,16.26-22.44,46.31-39.17,61.25-27.28,12.44,9.91,10,42.69-2.89,67C676.66,621.22,656.74,636.36,633,624.59Z"/><polygon class="cls-7" points="614.07 657.1 624.4 662.18 644.98 618.9 670.36 619.04 670.42 615.88 647.13 614.39 656.26 596.11 672.87 595.6 672.46 593.4 657.65 593.13 668.48 571.63 666.14 570.09 646.34 605.75 634.72 589.07 633.41 591.92 643.47 610.32 614.07 657.1"/><polyline class="cls-15" points="761.64 712.21 761.43 712.47 740.44 737.23 741.83 738.24 762.66 712.84"/><path class="cls-15" d="M750.91,728.83s5.67-2.62,8.86-1.19,4.82,5.25,4.82,5.25a16.1,16.1,0,0,1-8,.56A9,9,0,0,1,750.91,728.83Z"/><path class="cls-15" d="M748.2,726.34s-4.92-1.85-5.95-4.61.3-6,.3-6a13.57,13.57,0,0,1,5.07,4.48A7.57,7.57,0,0,1,748.2,726.34Z"/><path class="cls-33" d="M764.48,708.82s-2.11-10.61,2.45-9.89-2.06,10.18-2.06,10.18Z"/><path class="cls-33" d="M763.37,709.71s-9.09-5.85-5.42-8.63,5.9,8.55,5.9,8.55Z"/><path class="cls-33" d="M762.67,710.72s-10.68,1.71-9.8-2.81,10.1,2.43,10.1,2.43Z"/><path class="cls-33" d="M763.53,711.86s-6.18,8.87-8.82,5.1,8.76-5.58,8.76-5.58Z"/><path class="cls-33" d="M764.89,712.3s2.89,10.42-1.7,10S764.48,712,764.48,712Z"/><path class="cls-33" d="M765.93,711.32s9.5,5.16,6,8.2-6.52-8.09-6.52-8.09Z"/><path class="cls-33" d="M766.55,710.27s10.52-2.5,10,2.07-10.25-1.67-10.25-1.67Z"/><path class="cls-33" d="M765.61,709.19s5.51-9.31,8.42-5.74-8.33,6.22-8.33,6.22Z"/><circle class="cls-19" cx="764.34" cy="710.64" r="2.85" transform="translate(-144.63 197.8) rotate(-13.48)"/><path class="cls-34" d="M717.77,718.44a7,7,0,0,1,1.17,1.22L744.26,692l.52-.86h-1.14l-26.29,27.07C717.48,718.26,717.63,718.33,717.77,718.44Z"/><path class="cls-35" d="M755.66,694.71a5.18,5.18,0,0,0,3-9.91,5.19,5.19,0,0,0-6.23-8.29,5.28,5.28,0,0,0-.94.91,5.1,5.1,0,0,0-.89-2.13,21.61,21.61,0,0,1-14.46,4.9,5.17,5.17,0,0,0,1.83,9.23,5.18,5.18,0,0,0,7.13,7.38,5,5,0,0,0,.43-.39,5.18,5.18,0,1,0,10.15-1.69Z"/><circle class="cls-23" cx="748.66" cy="687.16" r="6.14" transform="translate(-260.81 570.35) rotate(-35.95)"/><circle class="cls-23" cx="749.59" cy="679.96" r="0.86" transform="translate(-256.4 569.39) rotate(-35.94)"/><circle class="cls-23" cx="746.69" cy="680.26" r="0.86" transform="translate(-257.13 567.83) rotate(-35.94)"/><circle class="cls-23" cx="743.86" cy="682" r="0.86" transform="translate(-258.86 567.97) rotate(-36.03)"/><circle class="cls-23" cx="742.04" cy="684.38" r="0.86" transform="translate(-260.41 565.71) rotate(-35.93)"/><circle class="cls-23" cx="741.31" cy="687.47" r="0.86" transform="translate(-262.44 566.48) rotate(-35.97)"/><circle class="cls-23" cx="742.5" cy="690.57" r="0.86" transform="translate(-263.98 567.35) rotate(-35.95)"/><circle class="cls-23" cx="744.33" cy="693.09" r="0.86" transform="translate(-265.16 569.24) rotate(-35.96)"/><circle class="cls-23" cx="746.83" cy="694.36" r="0.86" transform="translate(-265.31 569.99) rotate(-35.91)"/><circle class="cls-23" cx="749.55" cy="694.73" r="0.86" transform="translate(-265.08 572.26) rotate(-35.94)"/><circle class="cls-23" cx="752.2" cy="693.49" r="0.86" transform="translate(-263.86 573.68) rotate(-35.95)"/><circle class="cls-23" cx="754.87" cy="691.55" r="0.86" transform="translate(-262.24 575.09) rotate(-35.96)"/><circle class="cls-23" cx="755.99" cy="688.78" r="0.86" transform="translate(-260.36 574.91) rotate(-35.94)"/><circle class="cls-23" cx="755.73" cy="685.5" r="0.86" transform="translate(-258.44 573.75) rotate(-35.92)"/><circle class="cls-23" cx="754.56" cy="682.42" r="0.86" transform="translate(-256.87 572.51) rotate(-35.92)"/><circle class="cls-23" cx="752.2" cy="680.64" r="0.86" transform="matrix(0.81, -0.59, 0.59, 0.81, -256.39, 571.92)"/><path class="cls-34" d="M732.49,703.44s6.69-1.36,9.86-.12,2.9,8.14-2.22,6.8S732.49,703.44,732.49,703.44Z"/><path class="cls-34" d="M728.69,707.26s-4.39-5.23-4.81-8.61,5.77-6.42,7-1.29S728.69,707.26,728.69,707.26Z"/><path class="cls-34" d="M723.6,713.55s6.09-3.1,9.47-2.75,5,7.06-.33,7.14S723.6,713.55,723.6,713.55Z"/><polyline class="cls-10" points="719.22 679.32 719.02 679.59 699.39 705.44 700.83 706.38 720.26 679.89"/><path class="cls-10" d="M709.46,694.53s5.52-2.92,8.78-1.67,5.09,5,5.09,5a16.11,16.11,0,0,1-8,1A9,9,0,0,1,709.46,694.53Z"/><path class="cls-10" d="M705,695.71s-3.56-5.13-2.71-8.51,4.33-5.66,4.33-5.66a16.1,16.1,0,0,1,1.94,7.81A9,9,0,0,1,705,695.71Z"/><path class="cls-36" d="M720.66,677.25s-2.67-10.48,1.91-10-1.51,10.28-1.51,10.28Z"/><path class="cls-36" d="M720.82,678.35s-9.39-5.36-5.87-8.33,6.35,8.22,6.35,8.22Z"/><path class="cls-36" d="M721.41,678.73s-10.57,2.29-9.93-2.28,10.22,1.88,10.22,1.88Z"/><path class="cls-36" d="M722.34,678.46s-5.7,9.19-8.54,5.57,8.45-6,8.45-6Z"/><path class="cls-36" d="M722.71,676.81s3.44,10.25-1.16,10.12.74-10.36.74-10.36Z"/><path class="cls-36" d="M722,676.78s9.77,4.64,6.48,7.87-6.94-7.73-6.94-7.73Z"/><path class="cls-36" d="M721.53,676.5s10.37-3.06,10.08,1.53-10.33-1.12-10.33-1.12Z"/><path class="cls-36" d="M720.87,677.22s5-9.59,8.1-6.18-8,6.65-8,6.65Z"/><circle class="cls-15" cx="721.83" cy="677.61" r="2.85" transform="translate(-163.16 233.77) rotate(-16.56)"/><path class="cls-10" d="M680.34,657.11s-20.48-8.05-18.29-25.26,63.68-97.73,90.77-72.84c23.61,21.7-33.08,109.28-50.65,111.11S680.34,657.11,680.34,657.11Z"/><polygon class="cls-7" points="662.05 680.83 670.24 685.61 689.67 651.26 710.5 652.85 710.73 650.26 691.69 647.68 700.25 633.2 713.93 633.75 713.71 631.92 701.57 630.83 711.72 613.81 709.88 612.4 691.55 640.54 682.97 626.16 681.73 628.43 688.92 644.12 662.05 680.83"/><path class="cls-10" d="M792.53,800C704,677,559.66,597,396.59,597S89.17,677,.66,800"/><path class="cls-33" d="M479.27,672.52s-2.11-10.61,2.45-9.89-2.06,10.18-2.06,10.18Z"/><path class="cls-33" d="M478.16,673.42s-9.09-5.85-5.42-8.63,5.9,8.55,5.9,8.55Z"/><path class="cls-33" d="M477.46,674.43s-10.68,1.71-9.8-2.81,10.1,2.43,10.1,2.43Z"/><path class="cls-33" d="M478.32,675.57s-6.18,8.87-8.82,5.1,8.76-5.58,8.76-5.58Z"/><path class="cls-33" d="M479.68,676s2.89,10.42-1.7,10,1.29-10.31,1.29-10.31Z"/><path class="cls-33" d="M480.72,675s9.5,5.16,6,8.2-6.52-8.09-6.52-8.09Z"/><path class="cls-33" d="M481.34,674s10.52-2.5,10,2.07-10.25-1.67-10.25-1.67Z"/><path class="cls-33" d="M480.4,672.9s5.51-9.31,8.42-5.74-8.33,6.22-8.33,6.22Z"/><circle class="cls-19" cx="479.13" cy="674.35" r="2.85" transform="translate(-144.04 130.31) rotate(-13.48)"/><path class="cls-35" d="M496.28,715.65a5.18,5.18,0,0,0,3-9.91,5.19,5.19,0,0,0-6.23-8.29,5.28,5.28,0,0,0-.94.91,5.1,5.1,0,0,0-.89-2.13,5.18,5.18,0,0,0-9.2,4.43,5.17,5.17,0,1,0-3.43,9.69,5.18,5.18,0,0,0,7.13,7.38,5,5,0,0,0,.43-.39,5.18,5.18,0,1,0,10.15-1.69Z"/><circle class="cls-23" cx="489.29" cy="708.1" r="6.14" transform="translate(-322.5 422.07) rotate(-35.95)"/><circle class="cls-23" cx="490.21" cy="700.9" r="0.86" transform="matrix(0.81, -0.59, 0.59, 0.81, -318.05, 421.12)"/><circle class="cls-23" cx="487.31" cy="701.2" r="0.86" transform="translate(-318.81 419.57) rotate(-35.94)"/><circle class="cls-23" cx="484.49" cy="702.94" r="0.86" transform="translate(-320.79 419.42) rotate(-36.03)"/><circle class="cls-23" cx="482.67" cy="705.32" r="0.86" transform="translate(-322.08 417.52) rotate(-35.94)"/><circle class="cls-23" cx="481.94" cy="708.41" r="0.86" transform="translate(-324.19 418.13) rotate(-35.97)"/><circle class="cls-23" cx="483.12" cy="711.51" r="0.86" transform="translate(-325.66 419.07) rotate(-35.94)"/><circle class="cls-23" cx="484.95" cy="714.03" r="0.86" transform="matrix(0.81, -0.59, 0.59, 0.81, -326.88, 420.87)"/><circle class="cls-23" cx="487.46" cy="715.3" r="0.86" transform="translate(-326.89 421.86) rotate(-35.91)"/><circle class="cls-23" cx="490.17" cy="715.67" r="0.86" transform="translate(-326.75 423.97) rotate(-35.94)"/><circle class="cls-23" cx="492.82" cy="714.43" r="0.86" transform="translate(-325.57 425.42) rotate(-35.95)"/><circle class="cls-23" cx="495.5" cy="712.49" r="0.86" transform="translate(-323.98 426.81) rotate(-35.96)"/><circle class="cls-23" cx="496.61" cy="709.72" r="0.86" transform="translate(-322.05 426.65) rotate(-35.94)"/><circle class="cls-23" cx="496.35" cy="706.44" r="0.86" transform="translate(-320.07 425.59) rotate(-35.92)"/><circle class="cls-23" cx="495.18" cy="703.37" r="0.86" transform="translate(-318.49 424.33) rotate(-35.93)"/><circle class="cls-23" cx="492.82" cy="701.58" r="0.86" transform="matrix(0.81, -0.59, 0.59, 0.81, -318.2, 423.5)"/><path class="cls-36" d="M444.66,695.25s-2.67-10.48,1.91-10-1.51,10.28-1.51,10.28Z"/><path class="cls-36" d="M444.82,696.35s-9.39-5.36-5.87-8.33,6.35,8.22,6.35,8.22Z"/><path class="cls-36" d="M445.41,696.73s-10.57,2.29-9.93-2.28,10.22,1.88,10.22,1.88Z"/><path class="cls-36" d="M446.34,696.46s-5.7,9.19-8.54,5.57,8.45-6,8.45-6Z"/><path class="cls-36" d="M446.71,694.81s3.44,10.25-1.16,10.12.74-10.36.74-10.36Z"/><path class="cls-36" d="M446,694.78s9.77,4.64,6.48,7.87-6.94-7.73-6.94-7.73Z"/><path class="cls-36" d="M445.53,694.5s10.37-3.06,10.08,1.53-10.33-1.12-10.33-1.12Z"/><path class="cls-36" d="M444.87,695.22s5-9.59,8.1-6.18-8,6.65-8,6.65Z"/><circle class="cls-15" cx="445.83" cy="695.61" r="2.85" transform="translate(-179.73 155.87) rotate(-16.56)"/><path class="cls-37" d="M396.59,597c-1.66,0-3.32,0-5,0-5.34,3.69-10.53,7.61-15.49,11.8-40.51,34.14-68.69,80.32-89.9,128.33-9.06,20.5-17.87,41.48-25.73,62.84h83.81a608.31,608.31,0,0,1,21.79-97.23C378.65,663.24,396.24,624,429,598.06Q412.93,597,396.59,597Z"/><path class="cls-33" d="M256.79,644.79s-5.21-6.64-1.79-7.75,2.16,7.81,2.16,7.81Z"/><path class="cls-33" d="M256.33,645.8s-8.39-.87-6.82-4.09,7.12,3.87,7.12,3.87Z"/><path class="cls-33" d="M256.2,646.75s-6.83,5-7.81,1.5,7.89-1.87,7.89-1.87Z"/><path class="cls-33" d="M257.2,647.24s-1.17,8.36-4.34,6.66,4.13-7,4.13-7Z"/><path class="cls-33" d="M258.31,647.07s5.69,6.23,2.36,7.59-2.74-7.63-2.74-7.63Z"/><path class="cls-33" d="M258.69,646s8.43.24,7.1,3.58-7.39-3.33-7.39-3.33Z"/><path class="cls-33" d="M258.75,645.07s6.44-5.45,7.68-2.08-7.73,2.45-7.73,2.45Z"/><path class="cls-33" d="M257.71,644.65s.55-8.42,3.83-7-3.6,7.26-3.6,7.26Z"/><circle class="cls-19" cx="257.34" cy="646.11" r="2.22" transform="translate(-357.2 320.5) rotate(-40.37)"/><path class="cls-35" d="M289.51,669.82a4,4,0,0,0-1.42-7.95,4,4,0,0,0-7.26-3.57,4.11,4.11,0,0,0-.33,1,4,4,0,0,0-1.37-1.17,4,4,0,0,0-4.84,6.33,4,4,0,1,0,1,8,4,4,0,0,0,7.56,2.63,4.13,4.13,0,0,0,.17-.42,4,4,0,1,0,6.46-4.76Z"/><circle class="cls-23" cx="281.98" cy="667.03" r="4.79" transform="translate(-440.21 613.29) rotate(-62.83)"/><circle class="cls-23" cx="280.08" cy="661.7" r="0.67" transform="translate(-436.46 608.29) rotate(-62.8)"/><circle class="cls-23" cx="278.17" cy="662.93" r="0.67" transform="translate(-438.58 607.06) rotate(-62.78)"/><circle class="cls-23" cx="276.81" cy="665.13" r="0.67" transform="translate(-441.39 608.47) rotate(-62.89)"/><circle class="cls-23" cx="276.39" cy="667.43" r="0.67" transform="translate(-443.57 608.11) rotate(-62.79)"/><circle class="cls-23" cx="276.97" cy="669.84" r="0.67" transform="translate(-445.47 610.83) rotate(-62.87)"/><circle class="cls-23" cx="278.89" cy="671.58" r="0.67" transform="translate(-445.92 612.83) rotate(-62.81)"/><circle class="cls-23" cx="281.05" cy="672.69" r="0.67" transform="translate(-445.78 615.91) rotate(-62.86)"/><circle class="cls-23" cx="283.24" cy="672.69" r="0.67" transform="translate(-444.48 616.53) rotate(-62.75)"/><circle class="cls-23" cx="285.26" cy="671.99" r="0.67" transform="translate(-442.85 619.21) rotate(-62.85)"/><circle class="cls-23" cx="286.67" cy="670.19" r="0.67" transform="translate(-440.48 619.29) rotate(-62.84)"/><circle class="cls-23" cx="287.85" cy="667.89" r="0.67" transform="translate(-437.78 618.85) rotate(-62.82)"/><circle class="cls-23" cx="287.64" cy="665.58" r="0.67" transform="translate(-435.86 617.89) rotate(-62.86)"/><circle class="cls-23" cx="286.3" cy="663.38" r="0.67" transform="translate(-434.59 614.75) rotate(-62.8)"/><circle class="cls-23" cx="284.41" cy="661.66" r="0.67" transform="translate(-434.07 611.95) rotate(-62.78)"/><circle class="cls-23" cx="282.13" cy="661.25" r="0.67" transform="translate(-435.01 610.83) rotate(-62.87)"/><path class="cls-35" d="M444.93,628.18a7.23,7.23,0,1,0-8.69-11.52,4.08,4.08,0,0,0-.33,1,4,4,0,0,0-1.37-1.17,4,4,0,0,0-4.84,6.33,4,4,0,1,0,1,8,4,4,0,0,0,7.56,2.62,3.93,3.93,0,0,0,.17-.42,4,4,0,1,0,6.46-4.76Z"/><circle class="cls-23" cx="437.4" cy="625.39" r="4.79" transform="translate(-318.71 728.94) rotate(-62.83)"/><circle class="cls-23" cx="435.51" cy="620.05" r="0.67" transform="translate(-315.05 723.96) rotate(-62.8)"/><circle class="cls-23" cx="433.59" cy="621.28" r="0.67" transform="translate(-317.22 722.68) rotate(-62.78)"/><circle class="cls-23" cx="432.24" cy="623.49" r="0.67" transform="translate(-319.75 723.9) rotate(-62.87)"/><circle class="cls-23" cx="431.81" cy="625.79" r="0.67" transform="translate(-322.16 723.74) rotate(-62.79)"/><circle class="cls-23" cx="432.39" cy="628.2" r="0.67" transform="translate(-323.85 726.63) rotate(-62.88)"/><circle class="cls-23" cx="434.31" cy="629.94" r="0.67" transform="translate(-324.46 728.52) rotate(-62.82)"/><circle class="cls-23" cx="436.47" cy="631.04" r="0.67" transform="translate(-324.2 731.55) rotate(-62.86)"/><circle class="cls-23" cx="438.67" cy="631.05" r="0.67" transform="translate(-323.21 732) rotate(-62.74)"/><circle class="cls-23" cx="440.69" cy="630.34" r="0.67" transform="translate(-321.32 734.66) rotate(-62.84)"/><circle class="cls-23" cx="442.09" cy="628.55" r="0.67" transform="translate(-318.96 734.95) rotate(-62.84)"/><circle class="cls-23" cx="443.27" cy="626.25" r="0.67" transform="translate(-316.35 734.23) rotate(-62.8)"/><circle class="cls-23" cx="443.07" cy="623.94" r="0.67" transform="translate(-314.29 733.56) rotate(-62.86)"/><circle class="cls-23" cx="441.73" cy="621.74" r="0.67" transform="translate(-313.17 730.42) rotate(-62.8)"/><circle class="cls-23" cx="439.83" cy="620.01" r="0.67" transform="translate(-312.7 727.57) rotate(-62.78)"/><circle class="cls-23" cx="437.56" cy="619.6" r="0.67" transform="translate(-313.39 726.55) rotate(-62.88)"/><path class="cls-35" d="M719.13,763.13a7.23,7.23,0,1,0-8.69-11.52,4.09,4.09,0,0,0-.33,1,4,4,0,0,0-1.37-1.17,16.86,16.86,0,0,1-8.33,8.51A28.34,28.34,0,0,1,707,770.07a4.05,4.05,0,0,0,5.45-1.75,3.91,3.91,0,0,0,.17-.42,4,4,0,1,0,6.46-4.76Z"/><circle class="cls-23" cx="711.59" cy="760.34" r="4.79" transform="translate(-289.79 1046.2) rotate(-62.83)"/><circle class="cls-23" cx="709.7" cy="755.01" r="0.67" transform="translate(-286.23 1041.06) rotate(-62.8)"/><circle class="cls-23" cx="707.78" cy="756.24" r="0.67" transform="translate(-288.45 1039.74) rotate(-62.78)"/><circle class="cls-23" cx="706.43" cy="758.45" r="0.67" transform="translate(-290.7 1041.31) rotate(-62.87)"/><circle class="cls-23" cx="706.01" cy="760.74" r="0.67" transform="translate(-293.34 1040.89) rotate(-62.8)"/><circle class="cls-23" cx="706.59" cy="763.15" r="0.67" transform="translate(-294.78 1044.1) rotate(-62.88)"/><circle class="cls-23" cx="708.51" cy="764.89" r="0.67" transform="translate(-295.59 1045.67) rotate(-62.81)"/><circle class="cls-23" cx="710.67" cy="766" r="0.67" transform="translate(-295.19 1048.93) rotate(-62.86)"/><circle class="cls-23" cx="712.86" cy="766" r="0.67" transform="translate(-294.56 1048.89) rotate(-62.74)"/><circle class="cls-23" cx="714.88" cy="765.3" r="0.67" transform="translate(-292.38 1051.93) rotate(-62.84)"/><circle class="cls-23" cx="716.28" cy="763.5" r="0.67" transform="translate(-290.01 1052.25) rotate(-62.84)"/><circle class="cls-23" cx="717.46" cy="761.21" r="0.67" transform="translate(-287.51 1051.4) rotate(-62.8)"/><circle class="cls-23" cx="717.26" cy="758.89" r="0.67" transform="translate(-285.28 1050.93) rotate(-62.86)"/><circle class="cls-23" cx="715.92" cy="756.7" r="0.67" transform="translate(-284.36 1047.5) rotate(-62.8)"/><circle class="cls-23" cx="714.02" cy="754.97" r="0.67" transform="translate(-283.94 1044.6) rotate(-62.78)"/><circle class="cls-23" cx="711.75" cy="754.56" r="0.67" transform="translate(-284.34 1043.95) rotate(-62.87)"/><path class="cls-35" d="M510.19,639a4.78,4.78,0,1,0-5.16-6,2.27,2.27,0,0,0-.78-.67,9.64,9.64,0,0,1-4.77,4.86,16.2,16.2,0,0,1,3.79,5.81,2.32,2.32,0,0,0,3.12-1c0-.08.06-.16.09-.24a2.31,2.31,0,1,0,3.7-2.72Z"/><circle class="cls-23" cx="505.88" cy="637.39" r="2.74" transform="translate(-292.17 796.42) rotate(-62.83)"/><circle class="cls-23" cx="504.8" cy="634.34" r="0.38" transform="translate(-290.19 793.09) rotate(-62.78)"/><circle class="cls-23" cx="503.7" cy="635.04" r="0.38" transform="translate(-291.31 792.99) rotate(-62.82)"/><circle class="cls-23" cx="502.93" cy="636.31" r="0.38" transform="translate(-292.7 793.77) rotate(-62.87)"/><circle class="cls-23" cx="502.69" cy="637.62" r="0.38" transform="translate(-294.25 793) rotate(-62.78)"/><circle class="cls-23" cx="503.02" cy="639" r="0.38" transform="translate(-295.04 795.36) rotate(-62.88)"/><circle class="cls-23" cx="504.11" cy="639.99" r="0.38" transform="translate(-295.49 796.04) rotate(-62.82)"/><circle class="cls-23" cx="505.35" cy="640.62" r="0.38" transform="translate(-295.2 798.41) rotate(-62.88)"/><circle class="cls-23" cx="506.6" cy="640.63" r="0.38" transform="translate(-294.98 797.19) rotate(-62.71)"/><circle class="cls-23" cx="507.76" cy="640.22" r="0.38" transform="translate(-293.53 800.34) rotate(-62.88)"/><circle class="cls-23" cx="508.56" cy="639.2" r="0.38" transform="translate(-292.28 799.99) rotate(-62.85)"/><circle class="cls-23" cx="509.24" cy="637.89" r="0.38" transform="translate(-290.93 798.97) rotate(-62.78)"/><circle class="cls-23" cx="509.12" cy="636.56" r="0.38" transform="translate(-289.75 798.49) rotate(-62.81)"/><circle class="cls-23" cx="508.36" cy="635.31" r="0.38" transform="translate(-289.02 797.26) rotate(-62.82)"/><circle class="cls-23" cx="507.27" cy="634.32" r="0.38" transform="translate(-288.73 795.76) rotate(-62.82)"/><circle class="cls-23" cx="505.97" cy="634.08" r="0.38" transform="translate(-289.05 795.36) rotate(-62.88)"/><path class="cls-38" d="M240.72,672.81s-5.56-6.35-2.2-7.64,2.58,7.68,2.58,7.68Z"/><path class="cls-38" d="M241.22,673.52s-8.43-.42-7-3.72,7.32,3.48,7.32,3.48Z"/><path class="cls-38" d="M241.77,673.58s-6.55,5.32-7.72,1.92,7.77-2.29,7.77-2.29Z"/><path class="cls-38" d="M242.32,673.06s-.72,8.41-4,6.88,3.75-7.19,3.75-7.19Z"/><path class="cls-38" d="M242,671.78s6,5.92,2.76,7.46-3.14-7.47-3.14-7.47Z"/><path class="cls-38" d="M241.49,672s8.43-.21,7.28,3.19-7.56-2.93-7.56-2.93Z"/><path class="cls-38" d="M241.06,672s6.14-5.79,7.55-2.49-7.58,2.87-7.58,2.87Z"/><path class="cls-38" d="M240.86,672.72s.1-8.44,3.46-7.16-3.21,7.45-3.21,7.45Z"/><circle class="cls-23" cx="241.66" cy="672.65" r="2.22" transform="translate(-396.25 350.28) rotate(-43.43)"/><path class="cls-33" d="M646.24,753.56s2,8.21-1.6,7.79,1.29-8,1.29-8Z"/><path class="cls-33" d="M647.08,752.83s7.27,4.29,4.49,6.56-4.86-6.48-4.86-6.48Z"/><path class="cls-33" d="M647.59,752s8.27-1.66,7.72,1.89-8-1.58-8-1.58Z"/><path class="cls-33" d="M646.89,751.16s4.55-7.11,6.73-4.25-6.66,4.62-6.66,4.62Z"/><path class="cls-33" d="M645.82,750.85s-2.57-8,1-7.88-.69,8.08-.69,8.08Z"/><path class="cls-33" d="M645,751.65s-7.57-3.73-5-6.21,5.33,6.11,5.33,6.11Z"/><path class="cls-33" d="M644.58,752.49s-8.13,2.28-7.84-1.31,8,1,8,1Z"/><path class="cls-33" d="M645.35,753.3s-4,7.43-6.39,4.74,6.3-5.1,6.3-5.1Z"/><circle class="cls-19" cx="646.3" cy="752.13" r="2.22" transform="translate(-179.83 203.58) rotate(-15.74)"/><path class="cls-39" d="M631.66,720.46a7.23,7.23,0,1,0,3.09,14.09,4.12,4.12,0,0,0,.7-.73,4,4,0,0,0,.76,1.63,16.85,16.85,0,0,1,11.12-4.26,28.31,28.31,0,0,1-1.8-12,4.05,4.05,0,0,0-5.69-.68c-.12.09-.22.21-.33.31a4,4,0,1,0-7.86,1.63Z"/><circle class="cls-40" cx="637.83" cy="726.12" r="3.81" transform="translate(-312.48 550.06) rotate(-38.21)"/><circle class="cls-40" cx="637.43" cy="730.6" r="0.53" transform="matrix(0.79, -0.62, 0.62, 0.79, -315.23, 550.25)"/><circle class="cls-40" cx="639.22" cy="730.35" r="0.53" transform="translate(-314.71 551.38) rotate(-38.18)"/><circle class="cls-40" cx="640.93" cy="729.2" r="0.53" transform="translate(-313.85 553.36) rotate(-38.25)"/><circle class="cls-40" cx="642" cy="727.68" r="0.53" transform="translate(-312.44 552.38) rotate(-38.17)"/><circle class="cls-40" cx="642.38" cy="725.75" r="0.53" transform="translate(-311.53 554.23) rotate(-38.29)"/><circle class="cls-40" cx="641.57" cy="723.86" r="0.53" transform="translate(-310.08 550.79) rotate(-38.14)"/><circle class="cls-40" cx="640.37" cy="722.34" r="0.53" transform="translate(-309.71 551.48) rotate(-38.25)"/><circle class="cls-40" cx="638.79" cy="721.61" r="0.53" transform="translate(-309.17 547.97) rotate(-38.1)"/><circle class="cls-40" cx="637.1" cy="721.45" r="0.53" transform="translate(-309.86 549.26) rotate(-38.25)"/><circle class="cls-40" cx="635.49" cy="722.28" r="0.53" transform="translate(-310.53 547.4) rotate(-38.18)"/><circle class="cls-40" cx="633.87" cy="723.55" r="0.53" transform="translate(-311.89 547.92) rotate(-38.26)"/><circle class="cls-40" cx="633.25" cy="725.29" r="0.53" transform="translate(-312.86 546.58) rotate(-38.18)"/><circle class="cls-40" cx="633.49" cy="727.32" r="0.53" transform="translate(-314.07 547.24) rotate(-38.18)"/><circle class="cls-40" cx="634.29" cy="729.2" r="0.53" transform="translate(-314.9 547.31) rotate(-38.13)"/><circle class="cls-40" cx="635.8" cy="730.25" r="0.53" transform="translate(-315.72 551.05) rotate(-38.29)"/><path class="cls-36" d="M672.53,734.78s2.4,8.09-1.18,7.86.86-8.06.86-8.06Z"/><path class="cls-36" d="M672.37,733.93s7.49,3.89,4.84,6.31S672,734,672,734Z"/><path class="cls-36" d="M671.9,733.65s8.17-2.11,7.81,1.47-8-1.16-8-1.16Z"/><path class="cls-36" d="M671.18,733.89s4.16-7.34,6.49-4.6-6.4,5-6.4,5Z"/><path class="cls-36" d="M670.94,735.19s-3-7.89.6-7.93-.26,8.1-.26,8.1Z"/><path class="cls-36" d="M671.5,735.19s-7.76-3.32-5.29-5.94,5.65,5.81,5.65,5.81Z"/><path class="cls-36" d="M671.88,735.39s-8,2.71-7.9-.89,8.09.56,8.09.56Z"/><path class="cls-36" d="M672.37,734.81s-3.6,7.63-6.13,5.07,6-5.43,6-5.43Z"/><circle class="cls-15" cx="671.61" cy="734.53" r="2.22" transform="translate(-200.79 255.45) rotate(-18.79)"/><path class="cls-41" d="M136.66,747.63s2,8.21-1.6,7.79,1.29-8,1.29-8Z"/><path class="cls-41" d="M137.5,746.9s7.27,4.29,4.49,6.56-4.86-6.48-4.86-6.48Z"/><path class="cls-41" d="M138,746.09s8.27-1.66,7.72,1.89-8-1.58-8-1.58Z"/><path class="cls-41" d="M137.31,745.23s4.55-7.11,6.73-4.25-6.66,4.62-6.66,4.62Z"/><path class="cls-41" d="M136.24,744.93s-2.57-8,1-7.88-.69,8.08-.69,8.08Z"/><path class="cls-41" d="M135.46,745.72s-7.57-3.73-5-6.21,5.33,6.11,5.33,6.11Z"/><path class="cls-41" d="M135,746.56s-8.13,2.28-7.84-1.31,8,1,8,1Z"/><path class="cls-41" d="M135.77,747.37s-4,7.43-6.39,4.74,6.3-5.1,6.3-5.1Z"/><circle class="cls-19" cx="136.72" cy="746.2" r="2.22" transform="translate(-197.33 65.08) rotate(-15.74)"/><path class="cls-35" d="M122.07,714.53a4,4,0,0,0-2,7.82,4,4,0,0,0,5.11,6.28,4.12,4.12,0,0,0,.7-.73,4,4,0,0,0,.76,1.63,4,4,0,0,0,7-3.74,4,4,0,1,0,2.38-7.66,4,4,0,0,0-5.78-5.54,4.5,4.5,0,0,0-.33.31,4,4,0,1,0-7.86,1.63Z"/><circle class="cls-23" cx="127.76" cy="720.2" r="4.79" transform="translate(-418.06 233.28) rotate(-38.2)"/><circle class="cls-23" cx="127.26" cy="725.84" r="0.67" transform="translate(-421.41 233.91) rotate(-38.18)"/><circle class="cls-23" cx="129.51" cy="725.52" r="0.67" transform="translate(-420.54 235.01) rotate(-38.15)"/><circle class="cls-23" cx="131.66" cy="724.08" r="0.67" transform="translate(-420.15 237.12) rotate(-38.27)"/><circle class="cls-23" cx="133.01" cy="722.17" r="0.67" transform="translate(-417.66 236.39) rotate(-38.15)"/><circle class="cls-23" cx="133.48" cy="719.73" r="0.67" transform="translate(-416.85 237.06) rotate(-38.24)"/><circle class="cls-23" cx="132.46" cy="717.35" r="0.67" transform="translate(-414.83 235.06) rotate(-38.15)"/><circle class="cls-23" cx="130.96" cy="715.45" r="0.67" transform="translate(-414.45 234.26) rotate(-38.21)"/><circle class="cls-23" cx="128.97" cy="714.53" r="0.67" transform="translate(-413.63 232.07) rotate(-38.13)"/><circle class="cls-23" cx="126.84" cy="714.33" r="0.67" transform="translate(-414.95 231.82) rotate(-38.24)"/><circle class="cls-23" cx="124.81" cy="715.38" r="0.67" transform="translate(-415.59 230.29) rotate(-38.19)"/><circle class="cls-23" cx="122.78" cy="716.97" r="0.67" transform="translate(-417.21 229.6) rotate(-38.21)"/><circle class="cls-23" cx="122" cy="719.16" r="0.67" transform="translate(-418.69 229.54) rotate(-38.21)"/><circle class="cls-23" cx="122.31" cy="721.71" r="0.67" transform="translate(-420.04 230.09) rotate(-38.19)"/><circle class="cls-23" cx="123.31" cy="724.07" r="0.67" transform="translate(-420.96 230.86) rotate(-38.15)"/><circle class="cls-23" cx="125.21" cy="725.4" r="0.67" transform="translate(-422.41 233.47) rotate(-38.27)"/><path class="cls-36" d="M162.95,728.85s2.4,8.09-1.18,7.86.86-8.06.86-8.06Z"/><path class="cls-36" d="M162.79,728s7.49,3.89,4.84,6.31-5.2-6.22-5.2-6.22Z"/><path class="cls-36" d="M162.32,727.72s8.17-2.11,7.81,1.47-8-1.16-8-1.16Z"/><path class="cls-36" d="M161.6,728s4.16-7.34,6.49-4.6-6.4,5-6.4,5Z"/><path class="cls-36" d="M161.36,729.26s-3-7.89.6-7.93-.26,8.1-.26,8.1Z"/><path class="cls-36" d="M161.92,729.26s-7.76-3.32-5.29-5.94,5.65,5.81,5.65,5.81Z"/><path class="cls-36" d="M162.3,729.46s-8,2.71-7.9-.89,8.09.56,8.09.56Z"/><path class="cls-36" d="M162.79,728.88s-3.6,7.63-6.13,5.07,6-5.43,6-5.43Z"/><circle class="cls-15" cx="162.03" cy="728.61" r="2.22" transform="translate(-226.05 91.02) rotate(-18.79)"/><path class="cls-42" d="M579.5,697.6s2,8.21-1.6,7.79,1.29-8,1.29-8Z"/><path class="cls-42" d="M580.34,696.86s7.27,4.29,4.49,6.56-4.86-6.48-4.86-6.48Z"/><path class="cls-42" d="M580.85,696.05s8.28-1.66,7.72,1.89-7.95-1.58-7.95-1.58Z"/><path class="cls-42" d="M580.15,695.19s4.55-7.11,6.72-4.25-6.66,4.62-6.66,4.62Z"/><path class="cls-42" d="M579.07,694.89s-2.57-8,1-7.88-.69,8.08-.69,8.08Z"/><path class="cls-42" d="M578.29,695.68s-7.57-3.73-5-6.21,5.33,6.11,5.33,6.11Z"/><path class="cls-42" d="M577.84,696.53s-8.13,2.28-7.84-1.31,8,1,8,1Z"/><path class="cls-42" d="M578.6,697.34s-4,7.43-6.39,4.74,6.3-5.1,6.3-5.1Z"/><circle class="cls-35" cx="579.55" cy="696.17" r="2.22" transform="translate(-167.26 183.53) rotate(-15.76)"/><path class="cls-35" d="M564.91,664.49a4,4,0,0,0-2,7.82,4,4,0,0,0,5.11,6.28,4.12,4.12,0,0,0,.7-.73,4,4,0,0,0,.76,1.63,16.86,16.86,0,0,1,11.12-4.26,28.27,28.27,0,0,1-1.8-12,4.05,4.05,0,0,0-5.69-.68c-.12.09-.22.21-.33.31a4,4,0,1,0-7.86,1.63Z"/><circle class="cls-23" cx="570.6" cy="670.17" r="4.79" transform="translate(-292.25 496.37) rotate(-38.2)"/><circle class="cls-23" cx="570.09" cy="675.8" r="0.67" transform="translate(-295.76 496.86) rotate(-38.17)"/><circle class="cls-23" cx="572.35" cy="675.48" r="0.67" transform="translate(-295.13 498.44) rotate(-38.19)"/><circle class="cls-23" cx="574.5" cy="674.04" r="0.67" transform="translate(-294.01 500.62) rotate(-38.27)"/><circle class="cls-23" cx="575.84" cy="672.13" r="0.67" transform="translate(-292.2 499.32) rotate(-38.15)"/><circle class="cls-23" cx="576.32" cy="669.7" r="0.67" transform="translate(-290.85 500.42) rotate(-38.24)"/><circle class="cls-23" cx="575.3" cy="667.32" r="0.67" transform="translate(-289.34 497.96) rotate(-38.15)"/><circle class="cls-23" cx="573.8" cy="665.41" r="0.67" transform="translate(-288.75 498) rotate(-38.24)"/><circle class="cls-23" cx="571.8" cy="664.49" r="0.67" transform="translate(-288.26 494.8) rotate(-38.13)"/><circle class="cls-23" cx="569.67" cy="664.29" r="0.67" transform="translate(-288.93 495.15) rotate(-38.24)"/><circle class="cls-23" cx="567.65" cy="665.34" r="0.67" transform="translate(-289.86 493.37) rotate(-38.19)"/><circle class="cls-23" cx="565.62" cy="666.93" r="0.67" transform="translate(-291.36 492.81) rotate(-38.21)"/><circle class="cls-23" cx="564.84" cy="669.12" r="0.67" transform="translate(-292.96 493.2) rotate(-38.24)"/><circle class="cls-23" cx="565.14" cy="671.68" r="0.67" transform="translate(-294.33 493.23) rotate(-38.19)"/><circle class="cls-23" cx="566.15" cy="674.04" r="0.67" transform="translate(-295.44 493.7) rotate(-38.15)"/><circle class="cls-23" cx="568.04" cy="675.36" r="0.67" transform="translate(-296.34 497.52) rotate(-38.31)"/><path class="cls-43" d="M607.76,692.23s2.4,8.09-1.18,7.86.86-8.06.86-8.06Z"/><path class="cls-43" d="M607.61,691.38s7.49,3.89,4.84,6.31-5.2-6.22-5.2-6.22Z"/><path class="cls-43" d="M607.14,691.1s8.17-2.11,7.81,1.47-8-1.16-8-1.16Z"/><path class="cls-43" d="M606.42,691.34s4.16-7.34,6.49-4.6-6.4,5-6.4,5Z"/><path class="cls-43" d="M606.18,692.64s-3-7.89.6-7.93-.26,8.1-.26,8.1Z"/><path class="cls-43" d="M606.73,692.64s-7.76-3.32-5.29-5.94,5.65,5.81,5.65,5.81Z"/><path class="cls-43" d="M607.11,692.84s-8,2.71-7.9-.89,8.09.56,8.09.56Z"/><path class="cls-43" d="M607.61,692.26s-3.6,7.63-6.13,5.07,6-5.43,6-5.43Z"/><circle class="cls-42" cx="606.84" cy="691.99" r="2.22" transform="matrix(0.95, -0.32, 0.32, 0.95, -190.54, 232.33)"/><path class="cls-36" d="M325.83,635.05s2.4,8.09-1.18,7.86.86-8.06.86-8.06Z"/><path class="cls-36" d="M325.67,634.2s7.49,3.89,4.84,6.31-5.2-6.22-5.2-6.22Z"/><path class="cls-36" d="M325.2,633.92s8.17-2.11,7.81,1.47-8-1.16-8-1.16Z"/><path class="cls-36" d="M324.48,634.16s4.16-7.34,6.49-4.6-6.4,5-6.4,5Z"/><path class="cls-36" d="M324.24,635.46s-3-7.89.6-7.93-.26,8.1-.26,8.1Z"/><path class="cls-36" d="M324.8,635.46s-7.76-3.32-5.29-5.94,5.65,5.81,5.65,5.81Z"/><path class="cls-36" d="M325.18,635.66s-8,2.71-7.9-.89,8.09.56,8.09.56Z"/><path class="cls-36" d="M325.67,635.08s-3.6,7.63-6.13,5.07,6-5.43,6-5.43Z"/><circle class="cls-15" cx="324.91" cy="634.81" r="2.22" transform="translate(-187.16 138.49) rotate(-18.79)"/><path class="cls-44" d="M171.78,674.36s2.4,8.09-1.18,7.86.86-8.06.86-8.06Z"/><path class="cls-44" d="M171.62,673.5s7.49,3.89,4.84,6.31-5.2-6.22-5.2-6.22Z"/><path class="cls-44" d="M171.15,673.22s8.17-2.11,7.81,1.47-8-1.16-8-1.16Z"/><path class="cls-44" d="M170.43,673.46s4.16-7.34,6.49-4.6-6.4,5-6.4,5Z"/><path class="cls-44" d="M170.2,674.76s-3-7.89.6-7.93-.26,8.1-.26,8.1Z"/><path class="cls-44" d="M170.75,674.76s-7.76-3.32-5.29-5.94,5.65,5.81,5.65,5.81Z"/><path class="cls-44" d="M171.13,675s-8,2.71-7.9-.89,8.09.56,8.09.56Z"/><path class="cls-44" d="M171.62,674.39s-3.6,7.63-6.13,5.07,6-5.43,6-5.43Z"/><circle class="cls-33" cx="170.86" cy="674.11" r="2.22" transform="matrix(0.95, -0.32, 0.32, 0.95, -208.01, 90.95)"/><path class="cls-36" d="M69.1,761.26s2.4,8.09-1.18,7.86.86-8.06.86-8.06Z"/><path class="cls-36" d="M68.94,760.41s7.49,3.89,4.84,6.31-5.2-6.22-5.2-6.22Z"/><path class="cls-36" d="M68.47,760.13s8.17-2.11,7.81,1.47-8-1.16-8-1.16Z"/><path class="cls-36" d="M67.75,760.37s4.16-7.34,6.49-4.6-6.4,5-6.4,5Z"/><path class="cls-36" d="M67.51,761.67s-3-7.89.6-7.93-.26,8.1-.26,8.1Z"/><path class="cls-36" d="M68.07,761.67s-7.76-3.32-5.29-5.94,5.65,5.81,5.65,5.81Z"/><path class="cls-36" d="M68.45,761.87s-8,2.71-7.9-.89,8.09.56,8.09.56Z"/><path class="cls-36" d="M68.94,761.29s-3.6,7.63-6.13,5.07,6-5.43,6-5.43Z"/><circle class="cls-15" cx="68.18" cy="761.01" r="2.22" transform="translate(-241.49 62.52) rotate(-18.79)"/><path class="cls-45" d="M701.29,233.4l-51.09-13.26s-5.22-13,4.88-14.83,10.47,6.49,10.47,6.49S668,196.06,678,199.7s4.74,17.45,4.74,17.45,11.92-5.27,16.9.93S702,233.57,702,233.57"/><path class="cls-45" d="M660.86,433.45l81.13,39s13.52-12.12,6.5-24.1-20.87,4.09-20.87,4.09,9.38-15.9.6-19.13S715.57,437,715.57,437s8.95-21.84-7.18-22.36S681,432.59,681,432.59s5.65-9.26-5.17-11.22S660.86,433.45,660.86,433.45Z"/><path class="cls-46" d="M686.72,389.12l-46.42-19s9.65-12.14,18.7-9.26,7.71,8.75,7.71,8.75,12.92-15.82,22.07-5S686.72,389.12,686.72,389.12Z"/><path class="cls-47" d="M664.75,185.29l-86.81-22.53s1.86-18.37,11.34-17.07,11,7.38,11,7.38,4-11.36,13.18-9,9.22,10.27,9.22,10.27,4.82-6.63,11.11-5,6.31,9.51,6.31,9.51,11.4-24,29.22-9.08S664.75,185.29,664.75,185.29Z"/><path class="cls-45" d="M183.45,379.31l-81.11,36.08s-8-8.9-2.37-15.88,17.37-3.8,17.37-3.8-11.06-14-3-17.57,10.3.87,10.3.87-13.25-21.5,8.72-25.54,27.31,16.67,27.31,16.67,4.56-6.69,10.76-5.8S183.45,379.31,183.45,379.31Z"/><path class="cls-48" d="M95.47,362.48,45.62,388.4S41,377,46.22,374.73s8.39-.28,8.39-.28-3.2-7.66.65-8.74a5.58,5.58,0,0,1,5.94,1.69S55.27,350.49,66.71,347s15.12,11.19,15.12,11.19a6,6,0,0,1,6-4.86C93.05,353.11,95.47,362.48,95.47,362.48Z"/><g class="cls-49"><path class="cls-50" d="M292.89,766.56a1.92,1.92,0,0,0,1-.3,2,2,0,0,0,.76-.92,3.74,3.74,0,0,0,.28-1.54,3.62,3.62,0,0,0-.28-1.5,2.17,2.17,0,0,0-.77-1,1.77,1.77,0,0,0-1-.33v-1.57a3.12,3.12,0,0,1,.94.28,4.47,4.47,0,0,1,1.26,1V757.5a1.61,1.61,0,0,1,.27-1,.9.9,0,0,1,.76-.34.93.93,0,0,1,.76.32,1.37,1.37,0,0,1,.27.93V767a1.33,1.33,0,0,1-.29.93,1,1,0,0,1-.75.31.94.94,0,0,1-.74-.32,1.34,1.34,0,0,1-.29-.92v-.22a5.49,5.49,0,0,1-.87.82,3.24,3.24,0,0,1-.93.48l-.41.11Zm-2.08-2.76a3.74,3.74,0,0,0,.27,1.51,2.12,2.12,0,0,0,.75.93,1.85,1.85,0,0,0,1,.32h0v1.63a4.18,4.18,0,0,1-.68.05,3.23,3.23,0,0,1-1.45-.33,3.41,3.41,0,0,1-1.15-.95,4.25,4.25,0,0,1-.74-1.44,6.07,6.07,0,0,1-.25-1.8,4.68,4.68,0,0,1,1-3.18,3.32,3.32,0,0,1,2.63-1.14,4.36,4.36,0,0,1,.64,0V761h0a1.8,1.8,0,0,0-1.07.33,2.23,2.23,0,0,0-.73,1,3.81,3.81,0,0,0-.26,1.47"/><path class="cls-50" d="M303.13,763.11h2a2.63,2.63,0,0,0-.61-1.67,1.8,1.8,0,0,0-1.37-.56v-1.52h.07a4.16,4.16,0,0,1,2.19.54,3.54,3.54,0,0,1,1.38,1.39,3.67,3.67,0,0,1,.45,1.74,1.09,1.09,0,0,1-.47,1.06,2.92,2.92,0,0,1-1.32.24h-2.29Zm0,5.13v-1.45h.16a2.69,2.69,0,0,0,.72-.09,2.22,2.22,0,0,0,.62-.29,5.08,5.08,0,0,0,.56-.42l.66-.6a.71.71,0,0,1,.48-.15.79.79,0,0,1,.54.19.66.66,0,0,1,.21.52,1.44,1.44,0,0,1-.23.69,2.74,2.74,0,0,1-.7.76A4.09,4.09,0,0,1,305,768a5.22,5.22,0,0,1-1.62.23h-.23m-2-5.13h2v1.24h-2a2.84,2.84,0,0,0,.3,1.3,2,2,0,0,0,.78.86,2,2,0,0,0,.9.28v1.45a4.25,4.25,0,0,1-3-1.2,4.44,4.44,0,0,1-1.16-3.24,5.41,5.41,0,0,1,.29-1.8,4,4,0,0,1,.84-1.41,3.61,3.61,0,0,1,1.35-.9,4.78,4.78,0,0,1,1.72-.31v1.52h0a1.75,1.75,0,0,0-1.34.56,2.8,2.8,0,0,0-.63,1.67"/><path class="cls-50" d="M316.06,765.39a2.53,2.53,0,0,1-1.73,2.52,5.86,5.86,0,0,1-2.09.33,5.07,5.07,0,0,1-2-.36A2.94,2.94,0,0,1,309,767a1.82,1.82,0,0,1-.4-1.08.82.82,0,0,1,.26-.61.87.87,0,0,1,.65-.26.76.76,0,0,1,.53.17,1.83,1.83,0,0,1,.35.47,2.33,2.33,0,0,0,.8.87,2.39,2.39,0,0,0,1.27.29,1.88,1.88,0,0,0,1.08-.29.82.82,0,0,0,.42-.67.92.92,0,0,0-.43-.84,5.5,5.5,0,0,0-1.44-.5,11.35,11.35,0,0,1-1.83-.59,3,3,0,0,1-1.13-.81,1.85,1.85,0,0,1-.42-1.24,2.19,2.19,0,0,1,.39-1.24,2.71,2.71,0,0,1,1.15-.93,4.42,4.42,0,0,1,1.84-.35,6.14,6.14,0,0,1,1.52.17,3.81,3.81,0,0,1,1.12.47,2.25,2.25,0,0,1,.68.65,1.27,1.27,0,0,1,.24.7.81.81,0,0,1-.25.61,1,1,0,0,1-.71.24.89.89,0,0,1-.57-.19,3.62,3.62,0,0,1-.54-.58A2,2,0,0,0,313,761a1.87,1.87,0,0,0-.91-.19,1.79,1.79,0,0,0-1,.26.73.73,0,0,0-.39.62.67.67,0,0,0,.29.56,2.38,2.38,0,0,0,.77.37l1.34.35a7.06,7.06,0,0,1,1.66.59,2.72,2.72,0,0,1,1,.81,1.8,1.8,0,0,1,.33,1.07"/><path class="cls-50" d="M320.08,760.62v6.3a1.4,1.4,0,0,1-.31,1,1,1,0,0,1-.79.33,1,1,0,0,1-.78-.34,1.45,1.45,0,0,1-.3-1v-6.23a1.38,1.38,0,0,1,.3-1,1,1,0,0,1,.78-.33,1,1,0,0,1,.79.33,1.24,1.24,0,0,1,.31.9M319,758.37a1.16,1.16,0,0,1-.78-.28,1.09,1.09,0,0,1,0-1.55,1.1,1.1,0,0,1,.77-.3,1.15,1.15,0,0,1,.75.27,1,1,0,0,1,.33.79,1,1,0,0,1-.32.79,1.13,1.13,0,0,1-.76.28"/><path class="cls-50" d="M326.13,766.42a2,2,0,0,0,1-.29,2.18,2.18,0,0,0,.79-.88,3,3,0,0,0,.3-1.42,3.28,3.28,0,0,0-.59-2.08,1.86,1.86,0,0,0-1.51-.74v-1.56a3.13,3.13,0,0,1,.91.3,4,4,0,0,1,1.26,1.12v-.29a1.26,1.26,0,0,1,.28-.88.91.91,0,0,1,.71-.31.85.85,0,0,1,.84.41,2.67,2.67,0,0,1,.21,1.19v6.33a6.58,6.58,0,0,1-.23,1.87,3,3,0,0,1-.74,1.29,3.14,3.14,0,0,1-1.34.76,7.18,7.18,0,0,1-1.91.24V770a2.78,2.78,0,0,0,1.13-.23,1.35,1.35,0,0,0,.65-.66,2.65,2.65,0,0,0,.22-.91c0-.32,0-.84.05-1.55a3.61,3.61,0,0,1-1.16,1.07,2.85,2.85,0,0,1-.89.31Zm-2.1-2.68a3,3,0,0,0,.58,2,1.89,1.89,0,0,0,1.5.68h0V768a3.93,3.93,0,0,1-.68.05,3.31,3.31,0,0,1-1.91-.56,3.53,3.53,0,0,1-1.25-1.56,5.72,5.72,0,0,1-.44-2.32,5.55,5.55,0,0,1,.27-1.77,3.73,3.73,0,0,1,.76-1.33,3.25,3.25,0,0,1,1.14-.82,3.65,3.65,0,0,1,1.42-.27,4.12,4.12,0,0,1,.69.05V761h0a1.8,1.8,0,0,0-1.5.71,3.17,3.17,0,0,0-.56,2m2.1,6.21v1.51H326a5.9,5.9,0,0,1-2-.32,3.45,3.45,0,0,1-1.37-.81,1.5,1.5,0,0,1-.47-1,.83.83,0,0,1,.27-.64.89.89,0,0,1,.65-.26,1.08,1.08,0,0,1,.84.42l.36.44a2.24,2.24,0,0,0,.42.38,1.63,1.63,0,0,0,.54.23,3.16,3.16,0,0,0,.73.08h.18"/><path class="cls-50" d="M334.53,760.59v.27a3.79,3.79,0,0,1,1.26-1.11,3.33,3.33,0,0,1,1.57-.36,3.14,3.14,0,0,1,1.54.37,2.42,2.42,0,0,1,1,1.06,2.63,2.63,0,0,1,.28.86,9,9,0,0,1,.06,1.18v4.06a1.46,1.46,0,0,1-.29,1,1.09,1.09,0,0,1-1.57,0,1.45,1.45,0,0,1-.3-1v-3.63a3.65,3.65,0,0,0-.3-1.65,1.22,1.22,0,0,0-1.2-.57,1.78,1.78,0,0,0-1.06.35,2,2,0,0,0-.7,1,6.86,6.86,0,0,0-.16,1.82v2.73a1.43,1.43,0,0,1-.3,1,1,1,0,0,1-.8.33,1,1,0,0,1-.77-.34,1.44,1.44,0,0,1-.3-1v-6.3a1.34,1.34,0,0,1,.27-.93.93.93,0,0,1,.74-.31,1,1,0,0,1,.52.13,1,1,0,0,1,.37.41,1.4,1.4,0,0,1,.14.66"/><path class="cls-50" d="M346.21,763.11h2a2.64,2.64,0,0,0-.61-1.67,1.79,1.79,0,0,0-1.37-.56v-1.52h.07a4.17,4.17,0,0,1,2.19.54,3.54,3.54,0,0,1,1.37,1.39,3.68,3.68,0,0,1,.45,1.74,1.09,1.09,0,0,1-.47,1.06,2.9,2.9,0,0,1-1.32.24h-2.29Zm0,5.13v-1.45h.16a2.64,2.64,0,0,0,.71-.09,2.26,2.26,0,0,0,.63-.29,4.82,4.82,0,0,0,.56-.42l.66-.6a.72.72,0,0,1,.48-.15.79.79,0,0,1,.54.19.66.66,0,0,1,.21.52,1.42,1.42,0,0,1-.23.69,2.7,2.7,0,0,1-.7.76,4,4,0,0,1-1.17.61,5.2,5.2,0,0,1-1.62.23h-.23m-2-5.13h2v1.24h-2a2.89,2.89,0,0,0,.3,1.3,2.05,2.05,0,0,0,.77.86,2,2,0,0,0,.91.28v1.45a4.25,4.25,0,0,1-3-1.2A4.45,4.45,0,0,1,342,763.8a5.56,5.56,0,0,1,.29-1.8,3.94,3.94,0,0,1,.84-1.41,3.63,3.63,0,0,1,1.36-.9,4.79,4.79,0,0,1,1.72-.31v1.52h0a1.76,1.76,0,0,0-1.34.56,2.85,2.85,0,0,0-.63,1.67"/><path class="cls-50" d="M355.9,766.56a2,2,0,0,0,1-.3,2.07,2.07,0,0,0,.76-.92,3.71,3.71,0,0,0,.29-1.54,3.59,3.59,0,0,0-.29-1.5,2.2,2.2,0,0,0-.77-1,1.76,1.76,0,0,0-1-.33v-1.57a3.06,3.06,0,0,1,.94.28,4.43,4.43,0,0,1,1.26,1V757.5a1.62,1.62,0,0,1,.27-1,.89.89,0,0,1,.76-.34,1,1,0,0,1,.76.32,1.39,1.39,0,0,1,.27.93V767a1.33,1.33,0,0,1-.29.93,1,1,0,0,1-.74.31.93.93,0,0,1-.74-.32,1.33,1.33,0,0,1-.29-.92v-.22a5.42,5.42,0,0,1-.87.82,3.28,3.28,0,0,1-.92.48l-.41.11Zm-2.08-2.76a3.74,3.74,0,0,0,.28,1.51,2.13,2.13,0,0,0,.75.93,1.85,1.85,0,0,0,1,.32h0v1.63a4.23,4.23,0,0,1-.68.05,3.24,3.24,0,0,1-1.45-.33,3.34,3.34,0,0,1-1.15-.95,4.15,4.15,0,0,1-.74-1.44,6.07,6.07,0,0,1-.25-1.8,4.67,4.67,0,0,1,1-3.18,3.32,3.32,0,0,1,2.63-1.14,4.41,4.41,0,0,1,.65,0V761h0a1.79,1.79,0,0,0-1.07.33,2.21,2.21,0,0,0-.73,1,3.84,3.84,0,0,0-.26,1.47"/><path class="cls-50" d="M370.63,766.56h.07a1.8,1.8,0,0,0,1.42-.71,3.11,3.11,0,0,0,.6-2,4,4,0,0,0-.25-1.49,2.2,2.2,0,0,0-.7-1,1.74,1.74,0,0,0-1.07-.33h-.07v-1.57a4.53,4.53,0,0,1,.65,0,3.52,3.52,0,0,1,1.9.51,3.34,3.34,0,0,1,1.27,1.49,5.45,5.45,0,0,1,.45,2.32,6.34,6.34,0,0,1-.25,1.82,4.3,4.3,0,0,1-.73,1.43,3.31,3.31,0,0,1-1.16.94,3.39,3.39,0,0,1-1.5.33,4,4,0,0,1-.62,0Zm-2.08-2.7a3,3,0,0,0,.59,2,2,2,0,0,0,1.49.7v1.63l-.32-.07a2.8,2.8,0,0,1-.75-.32,3.12,3.12,0,0,1-.53-.4,8.38,8.38,0,0,1-.58-.62V767a1.31,1.31,0,0,1-.3.93,1,1,0,0,1-.75.31.94.94,0,0,1-.74-.31,1.4,1.4,0,0,1-.27-.93v-9.52a1.6,1.6,0,0,1,.27-1,.89.89,0,0,1,.75-.34,1,1,0,0,1,.77.32,1.4,1.4,0,0,1,.27.92v3.33a5,5,0,0,1,1.25-1,2.89,2.89,0,0,1,.94-.3V761a1.88,1.88,0,0,0-1,.33,2.26,2.26,0,0,0-.77,1,3.84,3.84,0,0,0-.28,1.53"/><path class="cls-50" d="M378.44,768.51l.2-.49L376,761.27a2.59,2.59,0,0,1-.25-.85.94.94,0,0,1,.15-.52,1,1,0,0,1,.39-.38,1,1,0,0,1,.52-.14.86.86,0,0,1,.71.3,2.71,2.71,0,0,1,.43.86l1.84,5.36,1.75-5a8.19,8.19,0,0,1,.37-.95,1.11,1.11,0,0,1,.36-.46,1,1,0,0,1,.53-.12.93.93,0,0,1,.48.13.91.91,0,0,1,.35.35.93.93,0,0,1,.12.47c0,.1-.05.24-.1.43a4.91,4.91,0,0,1-.18.57l-2.84,7.44a8.44,8.44,0,0,1-.72,1.54,2.31,2.31,0,0,1-.93.86,3.43,3.43,0,0,1-1.56.3,3.86,3.86,0,0,1-1.44-.21.85.85,0,0,1-.25-1.34,1,1,0,0,1,.68-.2,1.24,1.24,0,0,1,.34,0,1.71,1.71,0,0,0,.36,0,1.31,1.31,0,0,0,.59-.11,1,1,0,0,0,.39-.39,5.55,5.55,0,0,0,.4-.81"/><path class="cls-50" d="M418.75,759.57h.52v-.66a4.2,4.2,0,0,1,.26-1.62,1.65,1.65,0,0,1,.88-.88,4.24,4.24,0,0,1,1.7-.28c1.27,0,1.91.31,1.91.93a.76.76,0,0,1-.2.52.62.62,0,0,1-.47.22l-.44,0a3.49,3.49,0,0,0-.53,0c-.39,0-.65.12-.76.35a2.36,2.36,0,0,0-.17,1v.52H422q1.25,0,1.25.75c0,.36-.11.58-.33.68a2.34,2.34,0,0,1-.92.15h-.54v5.77a1.45,1.45,0,0,1-.3,1,1,1,0,0,1-.8.33,1,1,0,0,1-.77-.33,1.43,1.43,0,0,1-.3-1v-5.77h-.6a1.11,1.11,0,0,1-.75-.22.69.69,0,0,1-.27-.57q0-.78,1.09-.78"/><path class="cls-50" d="M426.53,765.09v1.82a1.41,1.41,0,0,1-.31,1,1,1,0,0,1-.79.33,1,1,0,0,1-.77-.33,1.42,1.42,0,0,1-.31-1v-6.06c0-1,.36-1.47,1.06-1.47a.89.89,0,0,1,.78.34,1.87,1.87,0,0,1,.27,1,3.74,3.74,0,0,1,.8-1,1.68,1.68,0,0,1,1.1-.34,2.83,2.83,0,0,1,1.33.34,1,1,0,0,1,.65.91.91.91,0,0,1-.87.92,2.74,2.74,0,0,1-.58-.15,2.64,2.64,0,0,0-.81-.15,1.18,1.18,0,0,0-.78.26,1.55,1.55,0,0,0-.47.74,5.31,5.31,0,0,0-.23,1.18q-.06.68-.06,1.66"/><path class="cls-50" d="M434.92,763.11h2a2.67,2.67,0,0,0-.6-1.67,1.81,1.81,0,0,0-1.37-.56v-1.52H435a4.17,4.17,0,0,1,2.18.54,3.54,3.54,0,0,1,1.37,1.39A3.68,3.68,0,0,1,439,763c0,.54-.16.9-.47,1.06a2.92,2.92,0,0,1-1.33.24h-2.29Zm0,5.13v-1.45h.16a2.63,2.63,0,0,0,.71-.09,2.25,2.25,0,0,0,.62-.29A5.24,5.24,0,0,0,437,766c.17-.15.39-.35.66-.6a.75.75,0,0,1,.49-.15.79.79,0,0,1,.54.19.67.67,0,0,1,.21.52,1.4,1.4,0,0,1-.23.69,2.75,2.75,0,0,1-.7.76,4.14,4.14,0,0,1-1.17.61,5.21,5.21,0,0,1-1.62.23h-.23m-2-5.13h2v1.24h-2a2.9,2.9,0,0,0,.3,1.3,2,2,0,0,0,1.68,1.14v1.45a4.24,4.24,0,0,1-3-1.2,4.45,4.45,0,0,1-1.17-3.24A5.36,5.36,0,0,1,431,762a4,4,0,0,1,.84-1.41,3.61,3.61,0,0,1,1.36-.9,4.76,4.76,0,0,1,1.72-.31v1.52h0a1.75,1.75,0,0,0-1.34.56,2.82,2.82,0,0,0-.63,1.67"/><path class="cls-50" d="M444.63,763.11h2a2.67,2.67,0,0,0-.6-1.67,1.81,1.81,0,0,0-1.37-.56v-1.52h.06a4.17,4.17,0,0,1,2.19.54,3.54,3.54,0,0,1,1.37,1.39,3.67,3.67,0,0,1,.45,1.74,1.09,1.09,0,0,1-.47,1.06,2.87,2.87,0,0,1-1.32.24h-2.29Zm0,5.13v-1.45h.16a2.62,2.62,0,0,0,.71-.09,2.21,2.21,0,0,0,.63-.29,5.26,5.26,0,0,0,.56-.42l.66-.6a.7.7,0,0,1,.48-.15.82.82,0,0,1,.55.19.68.68,0,0,1,.2.52,1.38,1.38,0,0,1-.23.69,2.65,2.65,0,0,1-.7.76,4,4,0,0,1-1.17.61,5.21,5.21,0,0,1-1.62.23h-.22m-2-5.13h2v1.24h-2a2.86,2.86,0,0,0,.3,1.3,2,2,0,0,0,1.68,1.14v1.45a4.26,4.26,0,0,1-3-1.2,4.44,4.44,0,0,1-1.17-3.24,5.56,5.56,0,0,1,.29-1.8,4,4,0,0,1,.84-1.41,3.62,3.62,0,0,1,1.36-.9,4.76,4.76,0,0,1,1.72-.31v1.52h0a1.76,1.76,0,0,0-1.34.56,2.77,2.77,0,0,0-.63,1.67"/><path class="cls-50" d="M456.6,763.77a3.68,3.68,0,0,0-.26-1.48,2.12,2.12,0,0,0-.72-.95,1.72,1.72,0,0,0-1-.33h-.06v-1.56a3.44,3.44,0,0,1,.6,0,3.49,3.49,0,0,1,1.85.52,3.56,3.56,0,0,1,1.33,1.52,5.3,5.3,0,0,1,.49,2.36,5.79,5.79,0,0,1-.28,1.84,4,4,0,0,1-.78,1.41,3.36,3.36,0,0,1-2.61,1.18,3.86,3.86,0,0,1-.6,0v-1.64h.06a1.72,1.72,0,0,0,1-.32,2.14,2.14,0,0,0,.74-.94,3.83,3.83,0,0,0,.28-1.52M454.52,761a1.93,1.93,0,0,0-1.46.71,3.09,3.09,0,0,0-.62,2.09,3,3,0,0,0,.62,2,1.92,1.92,0,0,0,1.46.73v1.64a2.62,2.62,0,0,1-1-.33,4.41,4.41,0,0,1-1.21-1.1V770c0,1-.35,1.43-1,1.43a.85.85,0,0,1-.82-.37,2.31,2.31,0,0,1-.2-1.08v-9.4a1.39,1.39,0,0,1,.27-.93.94.94,0,0,1,.75-.31,1,1,0,0,1,.75.31,1.27,1.27,0,0,1,.29.9v.27a4.45,4.45,0,0,1,1.28-1.12,3,3,0,0,1,.91-.3Z"/><path class="cls-50" d="M462.72,760.62v6.3a1.4,1.4,0,0,1-.31,1,1,1,0,0,1-.79.33,1,1,0,0,1-.78-.34,1.46,1.46,0,0,1-.3-1v-6.23a1.39,1.39,0,0,1,.3-1,1,1,0,0,1,.78-.33,1,1,0,0,1,.79.33,1.25,1.25,0,0,1,.31.9m-1.08-2.25a1.15,1.15,0,0,1-.78-.28,1,1,0,0,1-.32-.79,1,1,0,0,1,.33-.77,1.09,1.09,0,0,1,.77-.3,1.16,1.16,0,0,1,.75.27,1.12,1.12,0,0,1,0,1.58,1.11,1.11,0,0,1-.76.28"/><path class="cls-50" d="M470.4,767.24l-1.93-3.16-1.18,1.12v1.73a1.35,1.35,0,0,1-.33,1,1,1,0,0,1-.76.33,1,1,0,0,1-.79-.33,1.47,1.47,0,0,1-.29-1v-9.29a1.83,1.83,0,0,1,.28-1.11.93.93,0,0,1,.8-.38,1,1,0,0,1,.8.34,1.51,1.51,0,0,1,.29,1v5.29l2.45-2.57a6.84,6.84,0,0,1,.69-.65,1,1,0,0,1,.59-.17.94.94,0,0,1,.68.26.86.86,0,0,1,.27.65c0,.32-.29.75-.88,1.28l-1.15,1.06,2.23,3.51a6.36,6.36,0,0,1,.36.59.82.82,0,0,1,.11.38,1.14,1.14,0,0,1-.29.82,1,1,0,0,1-.74.29A.85.85,0,0,1,471,768a5.74,5.74,0,0,1-.58-.79"/><path class="cls-50" d="M475.78,768.24a1.24,1.24,0,0,1-.85-.32,1.13,1.13,0,0,1-.36-.9,1.17,1.17,0,0,1,.35-.84,1.15,1.15,0,0,1,.85-.35,1.19,1.19,0,0,1,.86.35,1.13,1.13,0,0,1,.35.84,1.15,1.15,0,0,1-.35.89,1.18,1.18,0,0,1-.84.32"/><path class="cls-50" d="M487.27,765.54a1.92,1.92,0,0,1-.25.87,3,3,0,0,1-.74.88A3.78,3.78,0,0,1,485,768a5.3,5.3,0,0,1-1.71.26,4.17,4.17,0,0,1-3.15-1.18,4.36,4.36,0,0,1-1.13-3.15,5.2,5.2,0,0,1,.52-2.37,3.69,3.69,0,0,1,1.5-1.59,5.11,5.11,0,0,1,3.9-.32,3.94,3.94,0,0,1,1.2.64,3.05,3.05,0,0,1,.75.83,1.67,1.67,0,0,1,.26.83.88.88,0,0,1-.29.66,1,1,0,0,1-.7.27.71.71,0,0,1-.46-.14,2.07,2.07,0,0,1-.4-.45,3.33,3.33,0,0,0-.83-.91,2.05,2.05,0,0,0-2.66.45,3.26,3.26,0,0,0-.59,2.06,3.8,3.8,0,0,0,.15,1.13,2.56,2.56,0,0,0,.44.88,1.92,1.92,0,0,0,.69.55,2.15,2.15,0,0,0,.9.19,2,2,0,0,0,1.12-.3,2.66,2.66,0,0,0,.83-.93,2,2,0,0,1,.44-.57.8.8,0,0,1,.56-.21.83.83,0,0,1,.66.3,1,1,0,0,1,.27.64"/><path class="cls-50" d="M495.13,763.81a3.28,3.28,0,0,0-.59-2.08A1.89,1.89,0,0,0,493,761v-1.61a5,5,0,0,1,1.78.32A3.84,3.84,0,0,1,497,762a5.49,5.49,0,0,1,0,3.58,4,4,0,0,1-.88,1.42,3.91,3.91,0,0,1-1.37.91,4.81,4.81,0,0,1-1.78.31v-1.62a1.88,1.88,0,0,0,1.56-.75,3.25,3.25,0,0,0,.59-2.06M493,761h0a2,2,0,0,0-1.12.33,2.19,2.19,0,0,0-.75,1,4.08,4.08,0,0,0-.26,1.51,3.93,3.93,0,0,0,.26,1.49,2.13,2.13,0,0,0,.74,1,1.92,1.92,0,0,0,1.13.34h0v1.62h0a4.72,4.72,0,0,1-1.78-.32,4,4,0,0,1-1.37-.91,3.84,3.84,0,0,1-.87-1.41,5.4,5.4,0,0,1,0-3.6,3.76,3.76,0,0,1,.86-1.4,3.89,3.89,0,0,1,1.37-.9,4.86,4.86,0,0,1,1.78-.31h0Z"/><path class="cls-50" d="M506.28,764v2.89a1.5,1.5,0,0,1-.31,1,1.06,1.06,0,0,1-.82.34,1,1,0,0,1-.8-.34,1.52,1.52,0,0,1-.31-1v-3.47a11,11,0,0,0-.06-1.27,1.34,1.34,0,0,0-.3-.74,1,1,0,0,0-.78-.29,1.38,1.38,0,0,0-1.4.73,5.13,5.13,0,0,0-.34,2.11v2.94a1.51,1.51,0,0,1-.31,1,1,1,0,0,1-.81.35,1.05,1.05,0,0,1-.81-.35,1.48,1.48,0,0,1-.31-1v-6.23a1.36,1.36,0,0,1,.28-.93,1,1,0,0,1,.74-.32,1,1,0,0,1,.75.3,1.1,1.1,0,0,1,.3.83v.21a3.83,3.83,0,0,1,1.21-1,3.24,3.24,0,0,1,1.44-.32,2.86,2.86,0,0,1,1.41.33,2.55,2.55,0,0,1,1,1,3.84,3.84,0,0,1,1.19-1,3,3,0,0,1,1.4-.32,3.23,3.23,0,0,1,1.54.35,2.25,2.25,0,0,1,1,1,4.52,4.52,0,0,1,.29,1.86v4.25a1.52,1.52,0,0,1-.32,1,1.14,1.14,0,0,1-1.63,0,1.48,1.48,0,0,1-.31-1V763.2a8.25,8.25,0,0,0-.06-1.13,1.26,1.26,0,0,0-.32-.71,1,1,0,0,0-.8-.28,1.47,1.47,0,0,0-.81.25,1.81,1.81,0,0,0-.61.69,5.48,5.48,0,0,0-.23,1.95"/><path class="cls-50" d="M401.59,753.77l-.14-.42a1.12,1.12,0,0,0,.87-1.59,1.07,1.07,0,0,0-1-.61h0a1,1,0,0,0-.87.46,1.13,1.13,0,0,0,.61,1.72l.13.45a6.25,6.25,0,0,0-3.14.94l.29.8a11.62,11.62,0,0,1,5.9-.45l.2-.77a6.71,6.71,0,0,0-2.82-.54"/><path class="cls-50" d="M412.63,756.76a.79.79,0,0,0-.33.8c-.33.32-.17.8-.21,1.2-.08.22-.34.25-.53.33a5.87,5.87,0,0,0-.87-1.08v0a8.36,8.36,0,0,0-1.21-.95c-.34.37-.7.73-1,1.11a18.71,18.71,0,0,1,1.79,2.3,12.09,12.09,0,0,1,.92,2l1.65-.87c-.29-.67-.62-1.33-1-2,.24-.13.57-.26.61-.58a2,2,0,0,1,.16-1,.71.71,0,0,0,1.08-.55.7.7,0,0,0-1.06-.62"/><path class="cls-50" d="M408.3,761.23a1.9,1.9,0,0,1-1.9,1.6v3.6a19.53,19.53,0,0,0,4.81-2,11.09,11.09,0,0,0-1.57-3.66,13.46,13.46,0,0,0-2.55-3.3,8.71,8.71,0,0,0-.69-.54V759a3.49,3.49,0,0,1,.69.1,1.93,1.93,0,0,1,1.21,2.12m-1.9,1.6h0a1.79,1.79,0,0,1-1.4-.58,2.06,2.06,0,0,1-.51-1.11,1.92,1.92,0,0,1,1.41-2.07,1.6,1.6,0,0,1,.51-.06v-2.08a6.59,6.59,0,0,0-3.77-1.25,15.53,15.53,0,0,0-4.94.7v2a3.2,3.2,0,0,1,.87.12,2.93,2.93,0,0,1,.89.41,3.08,3.08,0,0,1,.78,4.23,3.18,3.18,0,0,1-1.47,1.16,3,3,0,0,1-1.06.19v2.67h.09a34.38,34.38,0,0,0,5.84-.17,21.37,21.37,0,0,0,2.77-.55Zm-8.7-6.45v2a3,3,0,0,0-3.06,2.87,3.16,3.16,0,0,0,.83,2.3,3,3,0,0,0,2.23.95v2.67a30,30,0,0,1-5.75-1,8.56,8.56,0,0,1,.41-5.29,8,8,0,0,1,4.17-4q.57-.25,1.17-.44"/><path class="cls-50" d="M392.38,758.1a6.92,6.92,0,0,0-2,1.86,6,6,0,0,0-.4-.89c-.12-.16-.33-.09-.49-.09a1.55,1.55,0,0,1-.6-.09.72.72,0,0,0-.18-1,.69.69,0,1,0-.21,1.25c.25.38.71.31,1.1.33a6,6,0,0,0,.53.91,6.17,6.17,0,0,0-.67,2.67l1.61.68a15.87,15.87,0,0,1,.18-1.73,6,6,0,0,1,1.76-3.23c-.21-.22-.45-.42-.67-.63"/><path class="cls-50" d="M404.89,767.53a23.46,23.46,0,0,1-6,.47,24.72,24.72,0,0,1-4.06-.49c-.95-.19-1.87-.47-2.8-.73a7.39,7.39,0,0,0,1.31,3.3,6.53,6.53,0,0,0,3.24,2.6,14.07,14.07,0,0,0,4.06.61H401a13.6,13.6,0,0,0,5.1-.92,9.89,9.89,0,0,0,2.77-1.77,7.16,7.16,0,0,0,1.64-2.38,9,9,0,0,0,.66-3.11,19.65,19.65,0,0,1-6.29,2.42"/></g><path class="cls-45" d="M153.17,140.48,236,105.23s-.19-18.16-13.83-20.78-10.69,18.39-10.69,18.39-5.77-17.53-14-13.07-5.55,12-5.55,12S181.43,80.6,170.4,92.38s-4.59,32.4-4.59,32.4-3.24-10.35-11.85-3.51S153.17,140.48,153.17,140.48Z"/><path class="cls-48" d="M136.89,91.81,92,114.18S89.23,98.92,97.37,94,109,94,109,94s-3.38-20.15,10.77-19.91S136.89,91.81,136.89,91.81Z"/></g></g></svg>